<?xml version="1.0" encoding="UTF-8" standalone="no"?><!DOCTYPE svg PUBLIC "-//W3C//DTD SVG 1.1//EN" "http://www.w3.org/Graphics/SVG/1.1/DTD/svg11.dtd"><!-- Generated by graphviz version 2.40.1 (20161225.0304)
 --><!-- Title: job_demand_resource_model Pages: 1 --><svg xmlns="http://www.w3.org/2000/svg" xmlns:xlink="http://www.w3.org/1999/xlink" width="561pt" height="220pt" viewBox="0.00 0.00 560.63 220.06">
<g id="graph0" class="graph" transform="scale(1 1) rotate(0) translate(4 216.0626)">
<title>job_demand_resource_model</title>
<polygon fill="#ffffff" stroke="transparent" points="-4,4 -4,-216.0626 556.6306,-216.0626 556.6306,4 -4,4"/>
<text text-anchor="middle" x="276.3153" y="-25" font-family="Handlee" font-size="14.00" fill="#000000">仕事要求度・資源モデル</text>
<text text-anchor="middle" x="276.3153" y="-8.2" font-family="Handlee" font-size="14.00" fill="#000000">（島津, 2018を改変）</text>
<!-- A -->
<g id="node1" class="node">
<title>A</title>
<ellipse fill="none" stroke="#000000" cx="74.584" cy="-182.6469" rx="74.6682" ry="18"/>
<text text-anchor="middle" x="74.584" y="-178.4469" font-family="Handlee" font-size="14.00" fill="#000000">仕事の要求度</text>
</g>
<!-- B -->
<g id="node2" class="node">
<title>B</title>
<ellipse fill="none" stroke="#000000" cx="252.584" cy="-182.6469" rx="63.4325" ry="29.3315"/>
<text text-anchor="middle" x="252.584" y="-186.8469" font-family="Handlee" font-size="14.00" fill="#000000">ストレス反応</text>
<text text-anchor="middle" x="252.584" y="-170.0469" font-family="Handlee" font-size="14.00" fill="#000000">燃え尽き</text>
</g>
<!-- A&#45;&gt;B -->
<g id="edge1" class="edge">
<title>A-&gt;B</title>
<path fill="none" stroke="#000000" d="M149.2984,-182.6469C159.1134,-182.6469 169.1664,-182.6469 178.9631,-182.6469"/>
<polygon fill="#000000" stroke="#000000" points="179.0587,-186.147 189.0586,-182.6469 179.0586,-179.147 179.0587,-186.147"/>
<text text-anchor="middle" x="169.1429" y="-189.8469" font-family="Handlee" font-size="14.00" fill="#000000">＋</text>
</g>
<!-- D -->
<g id="node4" class="node">
<title>D</title>
<ellipse fill="none" stroke="#000000" cx="71.584" cy="-71.0156" rx="59.3032" ry="29.3315"/>
<text text-anchor="middle" x="71.584" y="-75.2156" font-family="Handlee" font-size="14.00" fill="#000000">個人・仕事</text>
<text text-anchor="middle" x="71.584" y="-58.4156" font-family="Handlee" font-size="14.00" fill="#000000">の資源</text>
</g>
<!-- A&#45;&gt;D -->
<g id="edge5" class="edge">
<title>A-&gt;D</title>
<path fill="none" stroke="#000000" d="M73.8187,-154.1672C73.4657,-141.0317 73.0406,-125.2139 72.6563,-110.9165"/>
<polygon fill="#000000" stroke="#000000" points="70.3212,-154.311 74.0886,-164.2133 77.3186,-154.1228 70.3212,-154.311"/>
<polygon fill="#000000" stroke="#000000" points="76.1529,-110.7369 72.3854,-100.8345 69.1554,-110.925 76.1529,-110.7369"/>
<text text-anchor="middle" x="84.084" y="-122.6313" font-family="Handlee" font-size="14.00" fill="#000000">－</text>
</g>
<!-- C -->
<g id="node3" class="node">
<title>C</title>
<ellipse fill="none" stroke="#000000" cx="455.584" cy="-182.6469" rx="94.3671" ry="29.3315"/>
<text text-anchor="middle" x="455.584" y="-186.8469" font-family="Handlee" font-size="14.00" fill="#000000">否定的アウトカム</text>
<text text-anchor="middle" x="455.584" y="-170.0469" font-family="Handlee" font-size="14.00" fill="#000000">=健康問題・離職</text>
</g>
<!-- B&#45;&gt;C -->
<g id="edge2" class="edge">
<title>B-&gt;C</title>
<path fill="none" stroke="#000000" d="M316.2575,-182.6469C327.4309,-182.6469 339.318,-182.6469 351.2572,-182.6469"/>
<polygon fill="#000000" stroke="#000000" points="351.2839,-186.147 361.2839,-182.6469 351.2839,-179.147 351.2839,-186.147"/>
<text text-anchor="middle" x="338.7255" y="-189.8469" font-family="Handlee" font-size="14.00" fill="#000000">＋</text>
</g>
<!-- E -->
<g id="node5" class="node">
<title>E</title>
<ellipse fill="none" stroke="#000000" cx="252.584" cy="-71.0156" rx="83.4601" ry="29.3315"/>
<text text-anchor="middle" x="252.584" y="-75.2156" font-family="Handlee" font-size="14.00" fill="#000000">ワーク</text>
<text text-anchor="middle" x="252.584" y="-58.4156" font-family="Handlee" font-size="14.00" fill="#000000">エンゲイジメント</text>
</g>
<!-- B&#45;&gt;E -->
<g id="edge6" class="edge">
<title>B-&gt;E</title>
<path fill="none" stroke="#000000" d="M252.584,-142.7796C252.584,-132.3961 252.584,-121.2088 252.584,-110.8282"/>
<polygon fill="#000000" stroke="#000000" points="249.0841,-143.0248 252.584,-153.0249 256.0841,-143.0249 249.0841,-143.0248"/>
<polygon fill="#000000" stroke="#000000" points="256.0841,-110.7761 252.584,-100.7761 249.0841,-110.7762 256.0841,-110.7761"/>
<text text-anchor="middle" x="263.084" y="-122.6313" font-family="Handlee" font-size="14.00" fill="#000000">－</text>
</g>
<!-- F -->
<g id="node6" class="node">
<title>F</title>
<ellipse fill="none" stroke="#000000" cx="463.584" cy="-71.0156" rx="89.0931" ry="29.3315"/>
<text text-anchor="middle" x="463.584" y="-75.2156" font-family="Handlee" font-size="14.00" fill="#000000">肯定的アウトカム</text>
<text text-anchor="middle" x="463.584" y="-58.4156" font-family="Handlee" font-size="14.00" fill="#000000">=パフォーマンス</text>
</g>
<!-- C&#45;&gt;F -->
<g id="edge7" class="edge">
<title>C-&gt;F</title>
<path fill="none" stroke="#000000" d="M458.4411,-142.7796C459.1852,-132.3961 459.987,-121.2088 460.7309,-110.8282"/>
<polygon fill="#000000" stroke="#000000" points="454.9307,-142.8002 457.7069,-153.0249 461.9128,-143.3007 454.9307,-142.8002"/>
<polygon fill="#000000" stroke="#000000" points="464.2274,-111.0008 461.4513,-100.7761 457.2453,-110.5003 464.2274,-111.0008"/>
<text text-anchor="middle" x="470.084" y="-122.6313" font-family="Handlee" font-size="14.00" fill="#000000">－</text>
</g>
<!-- D&#45;&gt;B -->
<g id="edge9" class="edge">
<title>D-&gt;B</title>
<path fill="none" stroke="#000000" d="M108.9844,-94.0822C136.982,-111.3497 175.4702,-135.0872 205.5536,-153.641"/>
<polygon fill="#000000" stroke="#000000" points="203.8499,-156.7024 214.1986,-158.9728 207.5245,-150.7444 203.8499,-156.7024"/>
<text text-anchor="middle" x="184.084" y="-122.6313" font-family="Handlee" font-size="14.00" fill="#000000">－</text>
</g>
<!-- D&#45;&gt;E -->
<g id="edge3" class="edge">
<title>D-&gt;E</title>
<path fill="none" stroke="#000000" d="M131.1009,-71.0156C140.0296,-71.0156 149.416,-71.0156 158.8492,-71.0156"/>
<polygon fill="#000000" stroke="#000000" points="159.0843,-74.5157 169.0843,-71.0156 159.0842,-67.5157 159.0843,-74.5157"/>
<text text-anchor="middle" x="150.0448" y="-78.2156" font-family="Handlee" font-size="14.00" fill="#000000">＋</text>
</g>
<!-- E&#45;&gt;F -->
<g id="edge4" class="edge">
<title>E-&gt;F</title>
<path fill="none" stroke="#000000" d="M336.2799,-71.0156C345.4899,-71.0156 354.9318,-71.0156 364.3079,-71.0156"/>
<polygon fill="#000000" stroke="#000000" points="364.4421,-74.5157 374.4421,-71.0156 364.4421,-67.5157 364.4421,-74.5157"/>
<text text-anchor="middle" x="355.3008" y="-78.2156" font-family="Handlee" font-size="14.00" fill="#000000">＋</text>
</g>
<!-- F&#45;&gt;B -->
<g id="edge8" class="edge">
<title>F-&gt;B</title>
<path fill="none" stroke="#000000" d="M416.2048,-96.082C382.6668,-113.8256 337.7376,-137.5957 303.4457,-155.7381"/>
<polygon fill="#000000" stroke="#000000" points="301.7255,-152.6885 294.5231,-160.4587 304.9991,-158.8759 301.7255,-152.6885"/>
<text text-anchor="middle" x="382.084" y="-122.6313" font-family="Handlee" font-size="14.00" fill="#000000">－</text>
</g>
</g>
</svg>