<svg width="1280" height="720" xmlns="http://www.w3.org/2000/svg" xmlns:xlink="http://www.w3.org/1999/xlink" overflow="hidden"><defs><clipPath id="clip0"><rect x="0" y="0" width="1280" height="720"/></clipPath><radialGradient cx="7.5819e+06" cy="3.3909e+06" r="8.30562e+06" fy="3.3909e+06" gradientUnits="userSpaceOnUse" spreadMethod="pad" id="fill1" gradientTransform="matrix(0.000104987 0 0 0.000104987 240.5 107.5)"><stop offset="0" stop-color="#3B3838"/><stop offset="0.84" stop-color="#E4E4E4"/><stop offset="1" stop-color="#E4E4E4"/></radialGradient><clipPath id="clip2"><rect x="239" y="454" width="194" height="203"/></clipPath><clipPath id="clip3"><rect x="432" y="454" width="197" height="203"/></clipPath></defs><g clip-path="url(#clip0)"><rect x="0" y="0" width="1280" height="720" fill="#FBE5D6"/><path d="M240.5 463.5 240.5 107.5 1036.5 463.5Z" stroke="#2F528F" stroke-width="1.33333" stroke-miterlimit="8" fill="url(#fill1)" fill-rule="evenodd"/><path d="M239.89 492.978 628.286 492.978 628.286 515.878 239.89 515.878Z" fill="#D9E1F2" fill-rule="evenodd"/><path d="M628.286 492.978 1036.19 492.978 1036.19 515.878 628.286 515.878Z" fill="#F4B084" fill-rule="evenodd"/><path d="M239.89 515.878 432.447 515.878 432.447 540.602 239.89 540.602Z" fill="#B4C6E7" fill-rule="evenodd"/><path d="M432.447 515.878 628.286 515.878 628.286 540.602 432.447 540.602Z" fill="#D9E1F2" fill-rule="evenodd"/><path d="M628.286 515.878 846.644 515.878 846.644 540.602 628.286 540.602Z" fill="#FFE699" fill-rule="evenodd"/><path d="M846.644 515.878 1036.19 515.878 1036.19 540.602 846.644 540.602Z" fill="#F4B084" fill-rule="evenodd"/><path d="M432.447 540.602 628.286 540.602 628.286 569.902 432.447 569.902Z" fill="#D9E1F2" fill-rule="evenodd"/><path d="M628.286 540.602 846.644 540.602 846.644 569.902 628.286 569.902Z" fill="#FFF2CC" fill-rule="evenodd"/><path d="M846.644 540.602 1036.19 540.602 1036.19 569.902 846.644 569.902Z" fill="#FCE4D6" fill-rule="evenodd"/><text font-family="Yu Gothic,Yu Gothic_MSFontService,sans-serif" font-weight="700" font-size="19" transform="translate(368.755 510)">健康（非疾病）<tspan font-size="19" x="407.484" y="0">疾病（有病）</tspan><tspan font-size="19" x="-88.586" y="24">発病リスク小</tspan><tspan font-size="19" x="105.612" y="24">発病リスク大</tspan><tspan font-size="19" x="312.71" y="24">自覚症状なし</tspan><tspan font-size="19" x="516.664" y="24">自覚症状あり</tspan><tspan font-size="12" x="-56.586" y="42">０次予防</tspan></text><g clip-path="url(#clip2)"><text font-family="Yu Gothic,Yu Gothic_MSFontService,sans-serif" font-weight="700" font-size="12" transform="translate(246.169 567)">（病気にならない制度システム）</text></g><text font-family="Yu Gothic,Yu Gothic_MSFontService,sans-serif" font-weight="700" font-size="12" transform="translate(506.366 552)">一次予防</text><g clip-path="url(#clip3)"><text font-family="Yu Gothic,Yu Gothic_MSFontService,sans-serif" font-weight="700" font-size="12" transform="translate(434.366 567)">（生活習慣改善で発病リスク低減）</text></g><text font-family="Yu Gothic,Yu Gothic_MSFontService,sans-serif" font-weight="700" font-size="12" transform="translate(713.465 552)">二次予防<tspan font-size="12" x="-66" y="15">（健康診断で発症前の早期発見）</tspan><tspan font-size="12" x="203.953" y="0">三次予防</tspan><tspan font-size="12" x="143.953" y="15">（医療機関での発症後の治療）</tspan></text><path d="M627.5 138.5 627.5 476.394" stroke="#FFC000" stroke-width="4.66667" stroke-miterlimit="8" stroke-dasharray="14 4.66667" fill="none" fill-rule="evenodd"/><path d="M0 0 1.24903 337.894" stroke="#FFC000" stroke-width="4.66667" stroke-miterlimit="8" stroke-dasharray="14 4.66667" fill="none" fill-rule="evenodd" transform="matrix(-1 0 0 1 840.749 137.5)"/><text font-family="Yu Gothic,Yu Gothic_MSFontService,sans-serif" font-weight="400" font-size="21" transform="translate(713.137 486)">病気・リスクの進行度・深刻度<tspan font-size="21" x="298.667" y="0">→</tspan></text><text font-family="Yu Gothic,Yu Gothic_MSFontService,sans-serif" font-weight="400" font-size="21" transform="matrix(6.12323e-17 1 -1 6.12323e-17 243.301 119)">←</text><text font-family="Yu Gothic,Yu Gothic_MSFontService,sans-serif" font-weight="400" font-size="21" writing-mode="tb-rl" transform="translate(243.301 140)" x="7.16748" y="2.52246">健康度・改善可能度</text><text font-family="Yu Gothic,Yu Gothic_MSFontService,sans-serif" font-weight="400" font-size="20" transform="translate(490.193 116)">●リスク因子<tspan font-size="20" x="0" y="24">■改善可能</tspan><tspan font-size="20" x="19" y="48">喫煙</tspan><tspan font-size="20" x="64.6667" y="48">飲酒</tspan><tspan font-size="20" x="19" y="72">塩分</tspan><tspan font-size="20" x="19" y="96">睡眠不足</tspan><tspan font-size="20" x="19" y="120">食事内容</tspan><tspan font-size="20" x="19" y="144">欠食偏食</tspan><tspan font-size="20" x="19" y="168">食事時間</tspan><tspan font-size="20" x="19" y="192">労働時間</tspan><tspan font-size="20" x="19" y="216">運動習慣</tspan><tspan font-size="20" x="19" y="240">社会参加</tspan><tspan font-size="20" x="19" y="264">病的肥満</tspan>…<tspan font-size="20" x="0" y="288">■改善不能</tspan><tspan font-size="20" x="19" y="312">年齢</tspan><tspan font-size="20" x="64.6667" y="312">性別</tspan><tspan font-size="20" x="19" y="336">遺伝背景</tspan>…<tspan font-weight="700" font-size="20" x="115.406" y="-26">発病☆</tspan><tspan font-weight="700" font-size="20" x="283.812" y="-26">発症（症状出現）★</tspan><tspan font-size="20" x="365.118" y="5">●ここで生活改善を</tspan><tspan font-size="20" x="365.118" y="29">始めても手遅れ</tspan><tspan font-size="20" x="160.856" y="33">●発症前の対処で</tspan><tspan font-size="20" x="160.856" y="57">重症化を予防</tspan><tspan font-size="20" x="160.856" y="81">●生活習慣病</tspan><tspan font-size="20" x="160.856" y="105">がん</tspan><tspan font-size="20" x="206.523" y="105">糖尿</tspan><tspan font-size="20" x="252.189" y="105">高血圧</tspan><tspan font-size="20" x="160.856" y="129">高尿酸</tspan><tspan font-size="20" x="226.523" y="129">肝臓</tspan><tspan font-size="20" x="160.856" y="153">脂質異常</tspan><tspan font-size="20" x="246.523" y="153">喫煙</tspan><tspan font-size="20" x="160.856" y="177">アルコール依存</tspan><tspan font-size="20" x="160.856" y="201">骨粗鬆症</tspan><tspan font-size="20" x="252.189" y="201">歯周病</tspan><tspan fill="#FFD966" font-size="20" x="160.856" y="249">●</tspan><tspan fill="#FFE699" font-size="20" x="180.856" y="249">異常値出現</tspan><tspan fill="#FFE699" font-size="20" x="160.856" y="273">血液データ</tspan><tspan fill="#FFE699" font-size="20" x="160.856" y="297">心電図</tspan><tspan fill="#FFE699" font-size="20" x="226.523" y="297">胸部</tspan><tspan fill="#FFE699" font-size="20" x="266.523" y="297">X</tspan><tspan fill="#FFE699" font-size="20" x="279.523" y="297">線</tspan><tspan font-size="20" x="365.938" y="68">●発病～発症</tspan><tspan font-size="20" x="385.938" y="92">5</tspan><tspan font-size="20" x="397.105" y="92">-</tspan><tspan font-size="20" x="405.771" y="92">10</tspan><tspan font-size="20" x="428.105" y="92">年以上</tspan><tspan font-size="20" x="365.938" y="116">痛風</tspan><tspan font-size="20" x="411.605" y="116">糖尿病</tspan><tspan font-size="20" x="477.271" y="116">動脈硬</tspan><tspan font-size="20" x="365.938" y="140">化</tspan><tspan font-size="20" x="391.605" y="140">心筋梗塞</tspan><tspan font-size="20" x="477.271" y="140">脳梗塞</tspan><tspan font-size="20" x="365.938" y="164">がん</tspan><tspan font-size="20" x="411.605" y="164">腎臓病</tspan><tspan font-size="20" x="477.271" y="164">肺気腫</tspan><tspan font-size="20" x="365.938" y="188">骨粗鬆症の骨折</tspan><tspan font-size="20" x="-220.862" y="100">●健康を決める力</tspan><tspan font-size="20" x="-220.862" y="124">「ヘルス・リテラシー」</tspan><tspan font-size="20" x="-220.862" y="148">まず知ること</tspan><tspan font-size="20" x="-220.862" y="196">●健康増進は</tspan><tspan font-size="20" x="-220.862" y="220">坂道を登り続ける</tspan><tspan font-size="20" x="-220.862" y="268">●健康づくりを支える</tspan><tspan font-size="20" x="-220.862" y="292">環境因子</tspan>(<tspan font-size="20" x="-133.195" y="292">人</tspan><tspan font-size="20" x="-107.528" y="292">モノ</tspan><tspan font-size="20" x="-61.8616" y="292">制度</tspan>)<tspan font-size="20" x="-220.862" y="316">が重要</tspan><tspan font-weight="700" font-size="16" x="-240.703" y="480">個人レベルでみると、健康診断の早期発見での対処（二次予防）できる病気・その機会は少ない。</tspan><tspan font-weight="700" font-size="16" x="-240.703" y="499">一方、社会人の約</tspan><tspan font-weight="700" font-size="16" x="-112.703" y="499">40</tspan><tspan font-weight="700" font-size="16" x="-94.3695" y="499">年間に継続する発病リスク低減の取組（一次予防）の効果は大きい。</tspan><tspan fill="#181818" font-family="Meiryo,Meiryo_MSFontService,sans-serif" font-weight="700" font-size="37" x="-87.0795" y="-54">健康・病気と予防の考え方</tspan></text><path d="M1048.5 269.834C1048.5 263.574 1053.57 258.5 1059.83 258.5L1261.17 258.5C1267.43 258.5 1272.5 263.574 1272.5 269.834L1272.5 315.167C1272.5 321.426 1267.43 326.5 1261.17 326.5L1059.83 326.5C1053.57 326.5 1048.5 321.426 1048.5 315.167Z" stroke="#2F528F" stroke-width="1.33333" stroke-miterlimit="8" fill="#C5E0B4" fill-rule="evenodd"/><text font-family="Yu Gothic,Yu Gothic_MSFontService,sans-serif" font-weight="700" font-size="24" transform="translate(1064.44 285)">健康診断は発病後<tspan font-size="24" x="24" y="29">の異常を検出</tspan></text><path d="M1048.5 88.8336C1048.5 82.5742 1053.57 77.5001 1059.83 77.5001L1261.17 77.5001C1267.43 77.5001 1272.5 82.5742 1272.5 88.8336L1272.5 134.167C1272.5 140.426 1267.43 145.5 1261.17 145.5L1059.83 145.5C1053.57 145.5 1048.5 140.426 1048.5 134.167Z" stroke="#2F528F" stroke-width="1.33333" stroke-miterlimit="8" fill="#FFFFFF" fill-rule="evenodd"/><text font-family="Yu Gothic,Yu Gothic_MSFontService,sans-serif" font-weight="700" font-size="24" transform="translate(1075.8 104)">年齢が上がると<tspan font-size="24" x="-12" y="29">健康度は下がる？</tspan></text><path d="M1047.5 179.834C1047.5 173.574 1052.57 168.5 1058.83 168.5L1260.17 168.5C1266.43 168.5 1271.5 173.574 1271.5 179.834L1271.5 225.167C1271.5 231.426 1266.43 236.5 1260.17 236.5L1058.83 236.5C1052.57 236.5 1047.5 231.426 1047.5 225.167Z" stroke="#2F528F" stroke-width="1.33333" stroke-miterlimit="8" fill="#D6DCE5" fill-rule="evenodd"/><text font-family="Yu Gothic,Yu Gothic_MSFontService,sans-serif" font-weight="700" font-size="24" transform="translate(1062.54 195)">生活習慣は病気の<tspan font-size="24" x="0" y="29">リスク因子となる</tspan></text><path d="M1047.5 359.834C1047.5 353.574 1052.57 348.5 1058.83 348.5L1260.17 348.5C1266.43 348.5 1271.5 353.574 1271.5 359.834L1271.5 405.167C1271.5 411.426 1266.43 416.5 1260.17 416.5L1058.83 416.5C1052.57 416.5 1047.5 411.426 1047.5 405.167Z" stroke="#2F528F" stroke-width="1.33333" stroke-miterlimit="8" fill="#FFF2CC" fill-rule="evenodd"/><text font-family="Yu Gothic,Yu Gothic_MSFontService,sans-serif" font-weight="700" font-size="24" transform="translate(1063.17 376)">◎異常値が出る前<tspan font-size="24" x="24" y="29">に阻止したい</tspan></text><path d="M1049.5 450.834C1049.5 444.574 1054.57 439.5 1060.83 439.5L1262.17 439.5C1268.43 439.5 1273.5 444.574 1273.5 450.834L1273.5 496.167C1273.5 502.426 1268.43 507.5 1262.17 507.5L1060.83 507.5C1054.57 507.5 1049.5 502.426 1049.5 496.167Z" stroke="#2F528F" stroke-width="1.33333" stroke-miterlimit="8" fill="#F4B183" fill-rule="evenodd"/><text font-family="Yu Gothic,Yu Gothic_MSFontService,sans-serif" font-weight="700" font-size="24" transform="translate(1065.07 466)">△症状が出る前に<tspan font-size="24" x="36" y="29">阻止したい</tspan></text><path d="M1047.5 631.834C1047.5 625.574 1052.57 620.5 1058.83 620.5L1260.17 620.5C1266.43 620.5 1271.5 625.574 1271.5 631.834L1271.5 677.167C1271.5 683.426 1266.43 688.5 1260.17 688.5L1058.83 688.5C1052.57 688.5 1047.5 683.426 1047.5 677.167Z" stroke="#2F528F" stroke-width="1.33333" stroke-miterlimit="8" fill="#FFC000" fill-rule="evenodd"/><text font-family="Yu Gothic,Yu Gothic_MSFontService,sans-serif" font-weight="700" font-size="24" transform="translate(1086.54 647)">「健康」とは<tspan font-size="24" x="-24" y="29">症状がないこと？</tspan></text><path d="M9.50005 631.834C9.50005 625.574 14.5742 620.5 20.8336 620.5L222.167 620.5C228.426 620.5 233.5 625.574 233.5 631.834L233.5 677.167C233.5 683.426 228.426 688.5 222.167 688.5L20.8336 688.5C14.5742 688.5 9.50005 683.426 9.50005 677.167Z" stroke="#2F528F" stroke-width="1.33333" stroke-miterlimit="8" fill="#FFC000" fill-rule="evenodd"/><text font-family="Yu Gothic,Yu Gothic_MSFontService,sans-serif" font-weight="700" font-size="24" transform="translate(25.4636 647)">高血圧糖尿病がん<tspan font-size="24" x="12" y="29">症状がない病気</tspan><tspan font-weight="400" font-size="20" x="830.667" y="-311">●発症後の治療</tspan><tspan font-weight="400" font-size="20" x="830.667" y="-287">死亡・機能廃絶の</tspan><tspan font-weight="400" font-size="20" x="830.667" y="-263">予防</tspan></text><path d="M10.5001 88.8336C10.5001 82.5742 15.5742 77.5001 21.8336 77.5001L223.167 77.5001C229.426 77.5001 234.5 82.5742 234.5 88.8336L234.5 134.167C234.5 140.426 229.426 145.5 223.167 145.5L21.8336 145.5C15.5742 145.5 10.5001 140.426 10.5001 134.167Z" stroke="#2F528F" stroke-width="1.33333" stroke-miterlimit="8" fill="#FFFFFF" fill-rule="evenodd"/><text font-family="Yu Gothic,Yu Gothic_MSFontService,sans-serif" font-weight="700" font-size="24" transform="translate(25.6596 104)">人生の持続可能性<tspan font-size="24" x="0" y="29">を高める健康増進</tspan></text><path d="M10.5001 269.834C10.5001 263.574 15.5742 258.5 21.8336 258.5L223.167 258.5C229.426 258.5 234.5 263.574 234.5 269.834L234.5 315.167C234.5 321.426 229.426 326.5 223.167 326.5L21.8336 326.5C15.5742 326.5 10.5001 321.426 10.5001 315.167Z" stroke="#2F528F" stroke-width="1.33333" stroke-miterlimit="8" fill="#C5E0B4" fill-rule="evenodd"/><text font-family="Yu Gothic,Yu Gothic_MSFontService,sans-serif" font-weight="700" font-size="24" transform="translate(37.5595 285)">◎主観的健康度<tspan font-size="24" x="0" y="29">の高い人は長寿</tspan></text><path d="M8.50005 179.834C8.50005 173.574 13.5742 168.5 19.8336 168.5L221.167 168.5C227.426 168.5 232.5 173.574 232.5 179.834L232.5 225.167C232.5 231.426 227.426 236.5 221.167 236.5L19.8336 236.5C13.5742 236.5 8.50005 231.426 8.50005 225.167Z" stroke="#2F528F" stroke-width="1.33333" stroke-miterlimit="8" fill="#D6DCE5" fill-rule="evenodd"/><text font-family="Yu Gothic,Yu Gothic_MSFontService,sans-serif" font-weight="700" font-size="24" transform="translate(23.6599 195)">リスク因子は多く<tspan font-size="24" x="24" y="29">の病気で共通</tspan></text><path d="M8.50005 359.834C8.50005 353.574 13.5742 348.5 19.8336 348.5L221.167 348.5C227.426 348.5 232.5 353.574 232.5 359.834L232.5 405.167C232.5 411.426 227.426 416.5 221.167 416.5L19.8336 416.5C13.5742 416.5 8.50005 411.426 8.50005 405.167Z" stroke="#2F528F" stroke-width="1.33333" stroke-miterlimit="8" fill="#FFF2CC" fill-rule="evenodd"/><text font-family="Yu Gothic,Yu Gothic_MSFontService,sans-serif" font-weight="700" font-size="24" transform="translate(36.2931 376)">規則正しい生活<tspan font-size="24" x="-12" y="29">散歩・運動と関連</tspan></text><path d="M10.5001 450.834C10.5001 444.574 15.5742 439.5 21.8336 439.5L223.167 439.5C229.426 439.5 234.5 444.574 234.5 450.834L234.5 496.167C234.5 502.426 229.426 507.5 223.167 507.5L21.8336 507.5C15.5742 507.5 10.5001 502.426 10.5001 496.167Z" stroke="#2F528F" stroke-width="1.33333" stroke-miterlimit="8" fill="#F4B183" fill-rule="evenodd"/><text font-family="Yu Gothic,Yu Gothic_MSFontService,sans-serif" font-weight="700" font-size="24" transform="translate(34.7762 466)">フレイル<tspan font-size="24" x="102.833" y="0">認知症</tspan><tspan font-size="24" x="24" y="29">介護</tspan><tspan font-size="24" x="78.8333" y="29">メタボ</tspan></text><path d="M1047.5 540.834C1047.5 534.574 1052.57 529.5 1058.83 529.5L1260.17 529.5C1266.43 529.5 1271.5 534.574 1271.5 540.834L1271.5 586.167C1271.5 592.426 1266.43 597.5 1260.17 597.5L1058.83 597.5C1052.57 597.5 1047.5 592.426 1047.5 586.167Z" stroke="#2F528F" stroke-width="1.33333" stroke-miterlimit="8" fill="#CAB3AE" fill-rule="evenodd"/><text font-family="Yu Gothic,Yu Gothic_MSFontService,sans-serif" font-weight="700" font-size="24" transform="translate(1062.54 556)">症状があるときは<tspan font-size="24" x="36" y="29">医療機関へ</tspan></text><path d="M10.5001 540.834C10.5001 534.574 15.5742 529.5 21.8336 529.5L223.167 529.5C229.426 529.5 234.5 534.574 234.5 540.834L234.5 586.167C234.5 592.426 229.426 597.5 223.167 597.5L21.8336 597.5C15.5742 597.5 10.5001 592.426 10.5001 586.167Z" stroke="#2F528F" stroke-width="1.33333" stroke-miterlimit="8" fill="#CAB3AE" fill-rule="evenodd"/><text font-family="Yu Gothic,Yu Gothic_MSFontService,sans-serif" font-weight="700" font-size="24" transform="translate(34.7762 556)">歯周病<tspan font-size="24" x="78.8333" y="0">骨粗鬆症</tspan><tspan font-size="24" x="3.42" y="29">は無症状で進行</tspan><tspan font-size="16" x="214.714" y="89">健康と病気を「病気がないことを健康とみなす」二分論・対立概念で捉える限界が来ている。健康と病気の</tspan><tspan font-size="16" x="214.714" y="108">間を連続的に変化する状態「未病」（</tspan><tspan font-size="16" x="491.214" y="108">『</tspan><tspan font-size="16" x="507.214" y="108">黄帝内</tspan><tspan font-size="16" x="555.214" y="108">経</tspan><tspan font-size="16" x="571.214" y="108">』</tspan><tspan font-size="16" x="587.214" y="108">上医治未病</tspan><tspan font-size="16" x="667.214" y="108">、</tspan><tspan font-size="16" x="683.214" y="108">中医治欲病</tspan><tspan font-size="16" x="763.214" y="108">、</tspan><tspan font-size="16" x="779.214" y="108">下医治已病</tspan><tspan font-size="16" x="859.214" y="108">）。健康の連続体</tspan><tspan font-size="16" x="214.714" y="127">としての健康破綻（アントノフスキー</tspan><tspan font-size="16" x="486.714" y="127">『</tspan><tspan font-size="16" x="502.714" y="127">健康の謎を解く</tspan><tspan font-size="16" x="614.714" y="127">』</tspan><tspan font-size="16" x="630.714" y="127">）。病気や病気の原因を取り除く対処法に加えて、</tspan><tspan font-size="16" x="214.714" y="146">健康を自ら生成する志向性に基づいて課題解決を進める必要性。</tspan></text><path d="M135.5 18.8337C135.5 13.1266 140.127 8.50005 145.834 8.50005L280.75 8.50005 280.75 8.50005 343 8.50005 374.166 8.50005C379.874 8.50005 384.5 13.1266 384.5 18.8337L384.5 44.6667 399.562 45.5618 384.5 60.1667 384.5 60.1664C384.5 65.8735 379.874 70.5 374.166 70.5L343 70.5 280.75 70.5 280.75 70.5 145.834 70.5C140.127 70.5 135.5 65.8735 135.5 60.1664L135.5 60.1667 135.5 44.6667 135.5 44.6667Z" stroke="#000000" stroke-width="1.33333" stroke-miterlimit="8" fill="#BDD7EE" fill-rule="evenodd"/><text font-family="Yu Gothic,Yu Gothic_MSFontService,sans-serif" font-weight="700" font-size="24" transform="translate(154.982 32)">100年ライフ時代の<tspan font-size="24" x="8.75333" y="29">健康寿命を伸ばす</tspan><tspan font-family="Meiryo,Meiryo_MSFontService,sans-serif" font-weight="400" font-size="11" x="822.492" y="-1">島内</tspan><tspan font-family="Meiryo,Meiryo_MSFontService,sans-serif" font-weight="400" font-size="11" x="847.492" y="-1">鈴木</tspan><tspan font-family="Meiryo,Meiryo_MSFontService,sans-serif" font-weight="400" font-size="11" x="868.826" y="-1">『</tspan><tspan font-family="Meiryo,Meiryo_MSFontService,sans-serif" font-weight="400" font-size="11" x="879.492" y="-1">ヘルスプロモーション概念図</tspan><tspan font-family="Meiryo,Meiryo_MSFontService,sans-serif" font-weight="400" font-size="11" x="1018.16" y="-1">』</tspan><tspan font-family="Meiryo,Meiryo_MSFontService,sans-serif" font-weight="400" font-size="11" x="822.492" y="12">飯島</tspan><tspan font-family="Meiryo,Meiryo_MSFontService,sans-serif" font-weight="400" font-size="11" x="843.826" y="12">『</tspan><tspan font-family="Meiryo,Meiryo_MSFontService,sans-serif" font-weight="400" font-size="11" x="854.492" y="12">フレイル予防ハンドブック</tspan><tspan font-family="Meiryo,Meiryo_MSFontService,sans-serif" font-weight="400" font-size="11" x="982.492" y="12">』</tspan><tspan font-family="Meiryo,Meiryo_MSFontService,sans-serif" font-weight="400" font-size="11" x="822.492" y="25">WHO</tspan><tspan font-family="Meiryo,Meiryo_MSFontService,sans-serif" font-weight="400" font-size="11" x="849.326" y="25">『</tspan><tspan font-family="Meiryo,Meiryo_MSFontService,sans-serif" font-weight="400" font-size="11" x="859.992" y="25">国際生活機能分類</tspan><tspan font-family="Meiryo,Meiryo_MSFontService,sans-serif" font-weight="400" font-size="11" x="945.326" y="25">』</tspan><tspan font-family="Meiryo,Meiryo_MSFontService,sans-serif" font-weight="400" font-size="11" x="955.992" y="25">など参考に筆者作成</tspan></text></g></svg>