<?xml version="1.0" encoding="UTF-8" standalone="no"?><!DOCTYPE svg PUBLIC "-//W3C//DTD SVG 1.1//EN" "http://www.w3.org/Graphics/SVG/1.1/DTD/svg11.dtd"><!-- Generated by graphviz version 2.40.1 (20161225.0304)
 --><!-- Title: niosh_occupational_stress_model Pages: 1 --><svg xmlns="http://www.w3.org/2000/svg" xmlns:xlink="http://www.w3.org/1999/xlink" width="473pt" height="230pt" viewBox="0.00 0.00 473.16 229.60">
<g id="graph0" class="graph" transform="scale(1 1) rotate(0) translate(4 225.6)">
<title>niosh_occupational_stress_model</title>
<polygon fill="#ffffff" stroke="transparent" points="-4,4 -4,-225.6 469.1573,-225.6 469.1573,4 -4,4"/>
<text text-anchor="middle" x="232.5787" y="-8.2" font-family="Handlee" font-size="14.00" fill="#000000">職業性ストレスモデル(NIOSH)・ストレスチェック</text>
<!-- buffer -->
<g id="node1" class="node">
<title>buffer</title>
<ellipse fill="#caff70" stroke="#000000" cx="215.1573" cy="-186.8" rx="46.3899" ry="18"/>
<text text-anchor="middle" x="215.1573" y="-182.6" font-family="Handlee" font-size="14.00" fill="#000000">緩和要因</text>
<text text-anchor="middle" x="164.2945" y="-209" font-family="Handlee" font-size="14.00" fill="#000000">C</text>
</g>
<!-- point1 -->
<g id="node7" class="node">
<title>point1</title>
<ellipse fill="#000000" stroke="#000000" cx="215.1573" cy="-114.8" rx="1.8" ry="1.8"/>
</g>
<!-- buffer&#45;&gt;point1 -->
<g id="edge3" class="edge">
<title>buffer-&gt;point1</title>
<path fill="none" stroke="#000000" d="M215.1573,-168.6314C215.1573,-155.4567 215.1573,-138.0195 215.1573,-126.6119"/>
<polygon fill="#000000" stroke="#000000" points="218.6574,-126.6067 215.1573,-116.6068 211.6574,-126.6068 218.6574,-126.6067"/>
</g>
<!-- stress -->
<g id="node2" class="node">
<title>stress</title>
<ellipse fill="none" stroke="#000000" cx="94.1573" cy="-114.8" rx="84.1015" ry="18"/>
<text text-anchor="middle" x="94.1573" y="-110.6" font-family="Handlee" font-size="14.00" fill="#000000">職場のストレス源</text>
<text text-anchor="middle" x="5.0533" y="-137" font-family="Handlee" font-size="14.00" fill="#000000">A</text>
</g>
<!-- stress&#45;&gt;point1 -->
<g id="edge6" class="edge">
<title>stress-&gt;point1</title>
<path fill="none" stroke="#000000" d="M178.2901,-114.8C189.9072,-114.8 201.5242,-114.8 213.1412,-114.8"/>
</g>
<!-- disease -->
<g id="node3" class="node">
<title>disease</title>
<polygon fill="#ffff80" stroke="#000000" points="465.1573,-132.8 411.1573,-132.8 411.1573,-96.8 465.1573,-96.8 465.1573,-132.8"/>
<text text-anchor="middle" x="438.1573" y="-110.6" font-family="Handlee" font-size="14.00" fill="#000000">疾病</text>
</g>
<!-- personal -->
<g id="node4" class="node">
<title>personal</title>
<ellipse fill="none" stroke="#000000" cx="157.1573" cy="-42.8" rx="49.8039" ry="18"/>
<text text-anchor="middle" x="157.1573" y="-38.6" font-family="Handlee" font-size="14.00" fill="#000000">個人要因</text>
</g>
<!-- environment -->
<g id="node5" class="node">
<title>environment</title>
<ellipse fill="none" stroke="#000000" cx="273.1573" cy="-42.8" rx="48.1427" ry="18"/>
<text text-anchor="middle" x="273.1573" y="-38.6" font-family="Handlee" font-size="14.00" fill="#000000">環境要因</text>
</g>
<!-- stress_reaction -->
<g id="node6" class="node">
<title>stress_reaction</title>
<ellipse fill="none" stroke="#000000" cx="314.1573" cy="-114.8" rx="61.8226" ry="18"/>
<text text-anchor="middle" x="314.1573" y="-110.6" font-family="Handlee" font-size="14.00" fill="#000000">ストレス反応</text>
<text text-anchor="middle" x="247.5778" y="-137" font-family="Handlee" font-size="14.00" fill="#000000">B</text>
</g>
<!-- stress_reaction&#45;&gt;disease -->
<g id="edge2" class="edge">
<title>stress_reaction-&gt;disease</title>
<path fill="none" stroke="#000000" d="M376.1573,-114.8C384.422,-114.8 392.6866,-114.8 400.9513,-114.8"/>
<polygon fill="#000000" stroke="#000000" points="401.0324,-118.3001 411.0323,-114.8 401.0323,-111.3001 401.0324,-118.3001"/>
</g>
<!-- point1&#45;&gt;personal -->
<g id="edge4" class="edge">
<title>point1-&gt;personal</title>
<path fill="none" stroke="#000000" d="M207.3958,-105.165C198.1829,-93.7282 182.6391,-74.4325 171.2762,-60.3269"/>
<polygon fill="#000000" stroke="#000000" points="204.9469,-107.7043 213.9459,-113.2962 210.3982,-103.313 204.9469,-107.7043"/>
</g>
<!-- point1&#45;&gt;environment -->
<g id="edge5" class="edge">
<title>point1-&gt;environment</title>
<path fill="none" stroke="#000000" d="M222.9189,-105.165C232.1318,-93.7282 247.6756,-74.4325 259.0385,-60.3269"/>
<polygon fill="#000000" stroke="#000000" points="219.9164,-103.313 216.3687,-113.2962 225.3677,-107.7043 219.9164,-103.313"/>
</g>
<!-- point1&#45;&gt;stress_reaction -->
<g id="edge1" class="edge">
<title>point1-&gt;stress_reaction</title>
<path fill="none" stroke="#000000" d="M217.0909,-114.8C225.3575,-114.8 233.6241,-114.8 241.8907,-114.8"/>
<polygon fill="#000000" stroke="#000000" points="241.9742,-118.3001 251.9742,-114.8 241.9741,-111.3001 241.9742,-118.3001"/>
</g>
</g>
</svg>