<svg xmlns="http://www.w3.org/2000/svg" xmlns:xlink="http://www.w3.org/1999/xlink" width="343" zoomAndPan="magnify" viewBox="0 0 258 155.999994" height="207" preserveAspectRatio="xMidYMid meet" version="1.0"><defs><g/></defs><rect x="-25.8" width="309.6" fill="#ffffff" y="-15.599999" height="187.199993" fill-opacity="1"/><rect x="-25.8" width="309.6" fill="#000000" y="-15.599999" height="187.199993" fill-opacity="1"/><g fill="#dfdbd4" fill-opacity="1"><g transform="translate(56.050168, 89.95275)"><g><path d="M 32.78125 -11.203125 L 32.78125 -10.9375 C 32.507812 -10.914062 32.285156 -10.847656 32.109375 -10.734375 C 32.066406 -10.710938 31.976562 -10.640625 31.84375 -10.515625 C 31.707031 -10.398438 31.519531 -10.25 31.28125 -10.0625 C 31.050781 -9.863281 30.78125 -9.765625 30.46875 -9.765625 C 30.1875 -9.765625 29.664062 -9.851562 28.90625 -10.03125 C 28.75 -10.082031 28.566406 -10.128906 28.359375 -10.171875 C 28.160156 -10.210938 27.914062 -10.253906 27.625 -10.296875 C 27.445312 -9.078125 27.210938 -7.835938 26.921875 -6.578125 C 26.640625 -5.316406 26.375 -4.296875 26.125 -3.515625 C 26.570312 -3.398438 26.960938 -3.289062 27.296875 -3.1875 C 27.628906 -3.09375 28.007812 -2.96875 28.4375 -2.8125 C 28.75 -2.695312 28.953125 -2.59375 29.046875 -2.5 C 29.148438 -2.414062 29.238281 -2.285156 29.3125 -2.109375 C 29.394531 -1.816406 29.4375 -1.523438 29.4375 -1.234375 C 29.4375 -0.921875 29.316406 -0.765625 29.078125 -0.765625 C 28.847656 -0.765625 28.566406 -0.832031 28.234375 -0.96875 C 27.921875 -1.082031 27.570312 -1.203125 27.1875 -1.328125 C 26.8125 -1.460938 26.269531 -1.644531 25.5625 -1.875 C 25.132812 -0.78125 24.726562 0.0546875 24.34375 0.640625 C 23.96875 1.234375 23.632812 1.53125 23.34375 1.53125 C 22.90625 1.53125 22.6875 0.972656 22.6875 -0.140625 C 22.6875 -0.242188 22.703125 -0.328125 22.734375 -0.390625 C 22.765625 -0.460938 22.847656 -0.578125 22.984375 -0.734375 C 23.046875 -0.804688 23.171875 -1.007812 23.359375 -1.34375 C 23.554688 -1.675781 23.734375 -2.007812 23.890625 -2.34375 L 23.75 -2.34375 C 22.65625 -2.613281 21.679688 -2.816406 20.828125 -2.953125 C 19.984375 -3.097656 19.039062 -3.238281 18 -3.375 C 17.488281 -3.445312 16.882812 -3.507812 16.1875 -3.5625 C 15.5 -3.613281 14.859375 -3.660156 14.265625 -3.703125 C 13.671875 -3.753906 13.242188 -3.78125 12.984375 -3.78125 C 12.515625 -3.78125 12.132812 -3.722656 11.84375 -3.609375 C 11.707031 -3.546875 11.597656 -3.515625 11.515625 -3.515625 C 11.398438 -3.515625 11.285156 -3.632812 11.171875 -3.875 C 11.128906 -4.007812 11.070312 -4.195312 11 -4.4375 C 10.9375 -4.6875 10.90625 -4.859375 10.90625 -4.953125 C 10.90625 -5.109375 10.960938 -5.207031 11.078125 -5.25 C 11.316406 -5.363281 11.457031 -5.429688 11.5 -5.453125 C 11.550781 -5.472656 11.617188 -5.519531 11.703125 -5.59375 C 12.148438 -6.394531 12.523438 -7.144531 12.828125 -7.84375 C 13.128906 -8.550781 13.492188 -9.484375 13.921875 -10.640625 C 13.203125 -10.546875 12.648438 -10.472656 12.265625 -10.421875 C 11.890625 -10.367188 11.546875 -10.28125 11.234375 -10.15625 C 10.921875 -10.03125 10.488281 -9.832031 9.9375 -9.5625 C 9.800781 -9.5 9.675781 -9.46875 9.5625 -9.46875 C 9.425781 -9.46875 9.285156 -9.578125 9.140625 -9.796875 C 9.003906 -10.023438 8.9375 -10.25 8.9375 -10.46875 C 8.9375 -10.625 8.988281 -10.757812 9.09375 -10.875 C 9.207031 -10.988281 9.546875 -11.253906 10.109375 -11.671875 C 10.503906 -11.984375 10.738281 -12.164062 10.8125 -12.21875 C 10.894531 -12.28125 10.972656 -12.3125 11.046875 -12.3125 C 11.085938 -12.3125 11.132812 -12.300781 11.1875 -12.28125 C 11.25 -12.257812 11.320312 -12.222656 11.40625 -12.171875 C 11.5625 -12.085938 11.71875 -12.046875 11.875 -12.046875 C 11.894531 -12.046875 11.925781 -12.046875 11.96875 -12.046875 C 12.019531 -12.046875 12.066406 -12.054688 12.109375 -12.078125 C 12.222656 -12.097656 12.515625 -12.128906 12.984375 -12.171875 C 13.453125 -12.222656 13.941406 -12.257812 14.453125 -12.28125 L 14.8125 -13.484375 L 15.21875 -14.6875 C 15.570312 -15.84375 15.816406 -16.660156 15.953125 -17.140625 C 16.085938 -17.617188 16.171875 -17.925781 16.203125 -18.0625 C 16.242188 -18.195312 16.265625 -18.296875 16.265625 -18.359375 C 16.265625 -18.609375 16.171875 -18.84375 15.984375 -19.0625 C 15.921875 -19.175781 15.890625 -19.242188 15.890625 -19.265625 C 15.890625 -19.359375 15.992188 -19.5 16.203125 -19.6875 C 16.421875 -19.875 16.570312 -19.96875 16.65625 -19.96875 C 16.851562 -19.96875 17.144531 -19.78125 17.53125 -19.40625 L 17.65625 -19.40625 C 18.394531 -19.488281 19.019531 -19.550781 19.53125 -19.59375 C 20.050781 -19.644531 20.523438 -19.679688 20.953125 -19.703125 C 21.390625 -19.722656 21.875 -19.734375 22.40625 -19.734375 C 22.925781 -19.734375 23.46875 -19.710938 24.03125 -19.671875 C 24.601562 -19.628906 25.117188 -19.570312 25.578125 -19.5 C 26.035156 -19.4375 26.332031 -19.367188 26.46875 -19.296875 C 26.625 -19.210938 26.734375 -19.171875 26.796875 -19.171875 C 26.859375 -19.171875 26.9375 -19.210938 27.03125 -19.296875 C 27.226562 -19.453125 27.363281 -19.53125 27.4375 -19.53125 C 27.632812 -19.53125 27.898438 -19.40625 28.234375 -19.15625 C 28.566406 -18.914062 28.734375 -18.71875 28.734375 -18.5625 C 28.734375 -18.519531 28.675781 -18.390625 28.5625 -18.171875 C 28.476562 -18.078125 28.40625 -17.78125 28.34375 -17.28125 C 28.289062 -16.78125 28.222656 -15.859375 28.140625 -14.515625 C 28.109375 -14.097656 28.070312 -13.671875 28.03125 -13.234375 C 27.988281 -12.796875 27.929688 -12.34375 27.859375 -11.875 L 28.671875 -11.78125 L 29.46875 -11.671875 C 29.894531 -11.609375 30.316406 -11.539062 30.734375 -11.46875 C 31.160156 -11.40625 31.585938 -11.351562 32.015625 -11.3125 Z M 26.03125 -10.4375 L 26.03125 -10.5 C 25.488281 -10.570312 25.015625 -10.628906 24.609375 -10.671875 C 24.210938 -10.710938 23.789062 -10.75 23.34375 -10.78125 C 22.90625 -10.820312 22.347656 -10.863281 21.671875 -10.90625 C 21.296875 -9.320312 20.960938 -8.085938 20.671875 -7.203125 C 20.378906 -6.328125 20.066406 -5.539062 19.734375 -4.84375 C 20.472656 -4.738281 21.210938 -4.613281 21.953125 -4.46875 C 22.703125 -4.320312 23.523438 -4.148438 24.421875 -3.953125 L 24.515625 -3.90625 C 24.742188 -4.582031 24.9375 -5.191406 25.09375 -5.734375 C 25.25 -6.285156 25.398438 -6.914062 25.546875 -7.625 C 25.691406 -8.34375 25.851562 -9.28125 26.03125 -10.4375 Z M 15.515625 -10.671875 L 14.34375 -7.859375 C 14.125 -7.328125 13.929688 -6.910156 13.765625 -6.609375 C 13.597656 -6.304688 13.359375 -5.910156 13.046875 -5.421875 C 13.910156 -5.378906 14.601562 -5.335938 15.125 -5.296875 C 15.65625 -5.265625 16.15625 -5.226562 16.625 -5.1875 C 17.09375 -5.144531 17.660156 -5.085938 18.328125 -5.015625 C 18.578125 -5.679688 18.835938 -6.492188 19.109375 -7.453125 C 19.390625 -8.421875 19.710938 -9.550781 20.078125 -10.84375 L 20.109375 -10.9375 C 19.617188 -10.9375 18.925781 -10.921875 18.03125 -10.890625 C 17.132812 -10.859375 16.3125 -10.816406 15.5625 -10.765625 Z M 20.375 -12.515625 L 20.5 -12.515625 C 20.75 -13.554688 20.957031 -14.492188 21.125 -15.328125 C 21.289062 -16.171875 21.375 -16.738281 21.375 -17.03125 C 21.375 -17.34375 21.296875 -17.734375 21.140625 -18.203125 C 20.628906 -18.179688 20.164062 -18.144531 19.75 -18.09375 C 19.34375 -18.050781 18.847656 -17.984375 18.265625 -17.890625 L 17.859375 -17.828125 L 17.828125 -17.734375 C 17.671875 -17.171875 17.503906 -16.59375 17.328125 -16 C 17.148438 -15.414062 16.972656 -14.832031 16.796875 -14.25 C 16.722656 -14.03125 16.632812 -13.757812 16.53125 -13.4375 C 16.4375 -13.113281 16.3125 -12.757812 16.15625 -12.375 L 16.765625 -12.40625 C 17.453125 -12.457031 17.972656 -12.488281 18.328125 -12.5 C 18.691406 -12.507812 18.976562 -12.515625 19.1875 -12.515625 C 19.394531 -12.515625 19.625 -12.515625 19.875 -12.515625 Z M 22.078125 -12.578125 L 22.078125 -12.4375 C 22.679688 -12.414062 23.191406 -12.390625 23.609375 -12.359375 C 24.035156 -12.328125 24.453125 -12.285156 24.859375 -12.234375 C 25.273438 -12.191406 25.753906 -12.140625 26.296875 -12.078125 C 26.359375 -12.546875 26.421875 -13.144531 26.484375 -13.875 C 26.554688 -14.613281 26.617188 -15.316406 26.671875 -15.984375 C 26.734375 -16.660156 26.765625 -17.117188 26.765625 -17.359375 C 26.765625 -17.554688 26.710938 -17.691406 26.609375 -17.765625 C 26.515625 -17.847656 26.320312 -17.90625 26.03125 -17.9375 C 25.957031 -17.9375 25.800781 -17.953125 25.5625 -17.984375 C 25.332031 -18.015625 25.03125 -18.050781 24.65625 -18.09375 C 24.300781 -18.144531 23.941406 -18.179688 23.578125 -18.203125 C 23.222656 -18.222656 22.820312 -18.234375 22.375 -18.234375 C 22.6875 -17.921875 22.898438 -17.679688 23.015625 -17.515625 C 23.128906 -17.347656 23.1875 -17.175781 23.1875 -17 C 23.1875 -16.863281 23.140625 -16.707031 23.046875 -16.53125 C 22.910156 -16.21875 22.828125 -16 22.796875 -15.875 C 22.765625 -15.75 22.703125 -15.460938 22.609375 -15.015625 C 22.566406 -14.679688 22.507812 -14.359375 22.4375 -14.046875 C 22.375 -13.734375 22.253906 -13.242188 22.078125 -12.578125 Z M 16.59375 -24.25 C 17.101562 -24.300781 17.722656 -24.351562 18.453125 -24.40625 C 19.191406 -24.457031 19.894531 -24.5 20.5625 -24.53125 C 21.238281 -24.570312 21.734375 -24.59375 22.046875 -24.59375 C 22.335938 -24.59375 22.800781 -24.570312 23.4375 -24.53125 C 24.070312 -24.5 24.753906 -24.46875 25.484375 -24.4375 C 26.222656 -24.40625 26.894531 -24.363281 27.5 -24.3125 C 28.101562 -24.269531 28.515625 -24.238281 28.734375 -24.21875 C 29.554688 -24.132812 30.109375 -24.046875 30.390625 -23.953125 C 30.671875 -23.859375 30.8125 -23.734375 30.8125 -23.578125 C 30.8125 -23.535156 30.800781 -23.484375 30.78125 -23.421875 C 30.757812 -23.367188 30.65625 -23.210938 30.46875 -22.953125 C 30.382812 -22.816406 30.226562 -22.691406 30 -22.578125 C 29.78125 -22.460938 29.582031 -22.40625 29.40625 -22.40625 C 29.269531 -22.40625 29.046875 -22.441406 28.734375 -22.515625 C 28.578125 -22.535156 28.222656 -22.566406 27.671875 -22.609375 C 27.128906 -22.660156 26.503906 -22.703125 25.796875 -22.734375 C 25.097656 -22.765625 24.4375 -22.796875 23.8125 -22.828125 C 23.1875 -22.859375 22.707031 -22.875 22.375 -22.875 C 21.9375 -22.875 21.3125 -22.851562 20.5 -22.8125 C 19.695312 -22.769531 18.867188 -22.710938 18.015625 -22.640625 C 17.160156 -22.578125 16.394531 -22.5 15.71875 -22.40625 C 15.164062 -21.425781 14.585938 -20.632812 13.984375 -20.03125 C 13.378906 -19.4375 12.863281 -19.140625 12.4375 -19.140625 C 12.332031 -19.140625 12.226562 -19.21875 12.125 -19.375 C 12.019531 -19.53125 11.96875 -19.71875 11.96875 -19.9375 C 11.96875 -20.113281 11.976562 -20.300781 12 -20.5 C 12.03125 -20.707031 12.054688 -20.890625 12.078125 -21.046875 C 12.117188 -21.222656 12.179688 -21.359375 12.265625 -21.453125 C 12.359375 -21.554688 12.53125 -21.675781 12.78125 -21.8125 C 13.738281 -22.363281 14.507812 -23.144531 15.09375 -24.15625 C 15.269531 -24.46875 15.429688 -24.816406 15.578125 -25.203125 C 15.722656 -25.597656 15.796875 -25.875 15.796875 -26.03125 C 15.796875 -26.164062 15.738281 -26.320312 15.625 -26.5 C 15.550781 -26.601562 15.515625 -26.679688 15.515625 -26.734375 C 15.515625 -26.835938 15.613281 -26.976562 15.8125 -27.15625 C 16.019531 -27.34375 16.179688 -27.4375 16.296875 -27.4375 C 16.492188 -27.4375 16.703125 -27.328125 16.921875 -27.109375 C 17.148438 -26.898438 17.265625 -26.707031 17.265625 -26.53125 C 17.265625 -26.4375 17.195312 -26.148438 17.0625 -25.671875 C 16.925781 -25.191406 16.769531 -24.71875 16.59375 -24.25 Z M 4.953125 -24.09375 L 6.390625 -24.09375 C 7.253906 -24.09375 7.988281 -24.070312 8.59375 -24.03125 C 9.195312 -24 9.742188 -23.941406 10.234375 -23.859375 C 10.703125 -23.785156 10.9375 -23.640625 10.9375 -23.421875 C 10.9375 -23.367188 10.914062 -23.296875 10.875 -23.203125 C 10.832031 -23.117188 10.707031 -22.890625 10.5 -22.515625 C 10.300781 -22.203125 10.035156 -22.046875 9.703125 -22.046875 C 9.503906 -22.046875 9.046875 -22.078125 8.328125 -22.140625 C 8.242188 -22.160156 8.109375 -22.171875 7.921875 -22.171875 C 7.742188 -22.171875 7.535156 -22.171875 7.296875 -22.171875 C 6.285156 -22.171875 5.554688 -22.15625 5.109375 -22.125 C 4.671875 -22.09375 4.285156 -22.019531 3.953125 -21.90625 C 3.617188 -21.800781 3.382812 -21.75 3.25 -21.75 C 3.09375 -21.75 2.9375 -21.851562 2.78125 -22.0625 C 2.625 -22.269531 2.546875 -22.488281 2.546875 -22.71875 C 2.546875 -22.894531 2.613281 -23.128906 2.75 -23.421875 C 2.789062 -23.503906 2.847656 -23.570312 2.921875 -23.625 C 3.003906 -23.6875 3.164062 -23.773438 3.40625 -23.890625 C 3.476562 -23.929688 3.546875 -23.96875 3.609375 -24 C 3.679688 -24.03125 3.738281 -24.070312 3.78125 -24.125 C 3.914062 -24.257812 4.015625 -24.328125 4.078125 -24.328125 C 4.078125 -24.328125 4.144531 -24.300781 4.28125 -24.25 C 4.394531 -24.1875 4.492188 -24.148438 4.578125 -24.140625 C 4.671875 -24.128906 4.796875 -24.113281 4.953125 -24.09375 Z M 8.390625 -7.328125 L 9.203125 -7.921875 C 9.335938 -8.054688 9.445312 -8.125 9.53125 -8.125 C 9.625 -8.125 9.6875 -8.097656 9.71875 -8.046875 C 9.75 -7.992188 9.8125 -7.851562 9.90625 -7.625 C 9.90625 -7.601562 9.925781 -7.550781 9.96875 -7.46875 C 10.007812 -7.394531 10.054688 -7.300781 10.109375 -7.1875 C 10.191406 -7.082031 10.234375 -6.984375 10.234375 -6.890625 C 10.234375 -6.710938 10.066406 -6.457031 9.734375 -6.125 C 9.710938 -6.082031 9.664062 -6.023438 9.59375 -5.953125 C 9.53125 -5.890625 9.363281 -5.742188 9.09375 -5.515625 C 8.832031 -5.296875 8.378906 -4.90625 7.734375 -4.34375 C 6.835938 -3.519531 6.179688 -2.914062 5.765625 -2.53125 C 5.359375 -2.15625 5.085938 -1.890625 4.953125 -1.734375 C 4.816406 -1.578125 4.691406 -1.398438 4.578125 -1.203125 C 4.421875 -0.890625 4.289062 -0.6875 4.1875 -0.59375 C 4.09375 -0.507812 3.957031 -0.46875 3.78125 -0.46875 C 3.582031 -0.46875 3.429688 -0.53125 3.328125 -0.65625 C 3.222656 -0.78125 3.082031 -1.03125 2.90625 -1.40625 C 2.882812 -1.425781 2.832031 -1.507812 2.75 -1.65625 C 2.675781 -1.800781 2.617188 -1.929688 2.578125 -2.046875 C 2.484375 -2.203125 2.4375 -2.320312 2.4375 -2.40625 C 2.4375 -2.476562 2.503906 -2.675781 2.640625 -3 C 2.773438 -3.320312 2.863281 -3.492188 2.90625 -3.515625 C 2.925781 -3.554688 2.957031 -3.578125 3 -3.578125 C 3.050781 -3.578125 3.203125 -3.578125 3.453125 -3.578125 C 3.472656 -3.578125 3.582031 -3.65625 3.78125 -3.8125 C 3.894531 -3.925781 4.0625 -4.0625 4.28125 -4.21875 C 5 -4.726562 5.703125 -5.265625 6.390625 -5.828125 C 6.859375 -6.203125 7.300781 -6.550781 7.71875 -6.875 C 8.144531 -7.195312 8.367188 -7.347656 8.390625 -7.328125 Z M 6.09375 -13.75 L 4.609375 -13.71875 C 4.054688 -13.695312 3.578125 -13.609375 3.171875 -13.453125 C 2.890625 -13.316406 2.671875 -13.25 2.515625 -13.25 C 2.359375 -13.25 2.1875 -13.351562 2 -13.5625 C 1.820312 -13.78125 1.734375 -14 1.734375 -14.21875 C 1.734375 -14.300781 1.75 -14.390625 1.78125 -14.484375 C 1.820312 -14.578125 1.882812 -14.722656 1.96875 -14.921875 C 2.019531 -15.003906 2.078125 -15.066406 2.140625 -15.109375 C 2.203125 -15.160156 2.359375 -15.253906 2.609375 -15.390625 C 2.648438 -15.429688 2.703125 -15.46875 2.765625 -15.5 C 2.835938 -15.539062 2.910156 -15.582031 2.984375 -15.625 C 3.160156 -15.78125 3.269531 -15.859375 3.3125 -15.859375 C 3.351562 -15.859375 3.410156 -15.820312 3.484375 -15.75 C 3.640625 -15.644531 4.003906 -15.59375 4.578125 -15.59375 C 4.753906 -15.59375 4.976562 -15.597656 5.25 -15.609375 C 5.519531 -15.617188 5.800781 -15.632812 6.09375 -15.65625 C 6.25 -15.675781 6.378906 -15.6875 6.484375 -15.6875 C 6.597656 -15.6875 6.6875 -15.6875 6.75 -15.6875 C 6.84375 -15.6875 6.957031 -15.6875 7.09375 -15.6875 C 7.226562 -15.6875 7.382812 -15.675781 7.5625 -15.65625 C 8.144531 -15.632812 8.644531 -15.601562 9.0625 -15.5625 C 9.9375 -15.5625 10.375 -15.390625 10.375 -15.046875 C 10.375 -15.023438 10.347656 -14.96875 10.296875 -14.875 C 10.253906 -14.789062 10.132812 -14.5625 9.9375 -14.1875 C 9.863281 -14.070312 9.75 -13.960938 9.59375 -13.859375 C 9.4375 -13.765625 9.304688 -13.71875 9.203125 -13.71875 L 6.5625 -13.78125 Z M 6.09375 -13.75 "/></g></g></g><g fill="#dfdbd4" fill-opacity="1"><g transform="translate(93.509667, 89.95275)"><g><path d="M 26.765625 -5.6875 L 26.390625 -1.609375 C 26.390625 -1.453125 26.347656 -1.285156 26.265625 -1.109375 C 26.191406 -0.929688 26.085938 -0.71875 25.953125 -0.46875 C 26.203125 -0.40625 26.328125 -0.304688 26.328125 -0.171875 C 26.328125 0.0976562 26.171875 0.332031 25.859375 0.53125 C 25.640625 0.644531 25.46875 0.722656 25.34375 0.765625 C 25.21875 0.816406 25.054688 0.84375 24.859375 0.84375 C 24.703125 0.84375 24.523438 0.84375 24.328125 0.84375 C 24.140625 0.84375 23.9375 0.828125 23.71875 0.796875 C 23.15625 0.753906 22.460938 0.71875 21.640625 0.6875 C 20.816406 0.65625 19.984375 0.625 19.140625 0.59375 C 18.304688 0.570312 17.601562 0.5625 17.03125 0.5625 L 14.578125 0.609375 C 13.578125 0.628906 12.765625 0.644531 12.140625 0.65625 C 11.515625 0.664062 11.007812 0.675781 10.625 0.6875 C 10.25 0.695312 9.90625 0.707031 9.59375 0.71875 C 9.28125 0.726562 8.925781 0.742188 8.53125 0.765625 C 8.394531 1.304688 8.171875 1.578125 7.859375 1.578125 C 7.304688 1.578125 6.882812 0.925781 6.59375 -0.375 C 6.476562 -0.882812 6.367188 -1.488281 6.265625 -2.1875 C 6.171875 -2.894531 6.085938 -3.582031 6.015625 -4.25 C 5.953125 -4.914062 5.921875 -5.453125 5.921875 -5.859375 C 5.921875 -6.390625 5.953125 -6.8125 6.015625 -7.125 C 6.085938 -7.4375 6.203125 -7.679688 6.359375 -7.859375 C 6.648438 -8.191406 6.90625 -8.359375 7.125 -8.359375 C 7.375 -8.359375 7.640625 -8.179688 7.921875 -7.828125 L 8.703125 -7.890625 C 9.484375 -7.960938 10.328125 -8.019531 11.234375 -8.0625 C 12.148438 -8.101562 13.050781 -8.132812 13.9375 -8.15625 C 14.832031 -8.1875 15.609375 -8.203125 16.265625 -8.203125 C 16.859375 -8.203125 17.554688 -8.179688 18.359375 -8.140625 C 19.160156 -8.109375 19.972656 -8.0625 20.796875 -8 C 21.628906 -7.945312 22.363281 -7.890625 23 -7.828125 C 23.632812 -7.765625 24.0625 -7.707031 24.28125 -7.65625 C 24.375 -7.632812 24.453125 -7.617188 24.515625 -7.609375 C 24.585938 -7.597656 24.632812 -7.59375 24.65625 -7.59375 C 24.769531 -7.59375 24.96875 -7.671875 25.25 -7.828125 C 25.382812 -7.867188 25.460938 -7.890625 25.484375 -7.890625 C 25.671875 -7.890625 25.882812 -7.828125 26.125 -7.703125 C 26.375 -7.585938 26.59375 -7.457031 26.78125 -7.3125 C 26.96875 -7.164062 27.0625 -7.035156 27.0625 -6.921875 C 27.0625 -6.835938 27.003906 -6.660156 26.890625 -6.390625 C 26.867188 -6.296875 26.84375 -6.1875 26.8125 -6.0625 C 26.78125 -5.945312 26.765625 -5.820312 26.765625 -5.6875 Z M 8.46875 -1 L 8.46875 -0.84375 C 8.90625 -0.863281 9.472656 -0.882812 10.171875 -0.90625 C 10.878906 -0.925781 11.632812 -0.945312 12.4375 -0.96875 C 13.25 -0.988281 14.03125 -1.003906 14.78125 -1.015625 C 15.539062 -1.023438 16.203125 -1.03125 16.765625 -1.03125 C 17.273438 -1.03125 17.882812 -1.019531 18.59375 -1 C 19.3125 -0.976562 20.050781 -0.953125 20.8125 -0.921875 C 21.570312 -0.890625 22.285156 -0.847656 22.953125 -0.796875 C 23.617188 -0.753906 24.164062 -0.710938 24.59375 -0.671875 C 24.5625 -0.847656 24.546875 -0.953125 24.546875 -0.984375 C 24.546875 -1.015625 24.546875 -1.046875 24.546875 -1.078125 L 24.59375 -1.765625 L 24.65625 -5.421875 C 24.65625 -5.660156 24.628906 -5.816406 24.578125 -5.890625 C 24.535156 -5.972656 24.414062 -6.03125 24.21875 -6.0625 C 24 -6.125 23.597656 -6.179688 23.015625 -6.234375 C 22.429688 -6.296875 21.753906 -6.351562 20.984375 -6.40625 C 20.222656 -6.457031 19.445312 -6.5 18.65625 -6.53125 C 17.863281 -6.570312 17.164062 -6.59375 16.5625 -6.59375 C 15.9375 -6.59375 15.234375 -6.578125 14.453125 -6.546875 C 13.671875 -6.523438 12.882812 -6.492188 12.09375 -6.453125 C 11.300781 -6.410156 10.570312 -6.359375 9.90625 -6.296875 C 9.238281 -6.242188 8.710938 -6.195312 8.328125 -6.15625 L 8.328125 -6.0625 L 8.296875 -5.78125 C 8.234375 -5.445312 8.203125 -5.101562 8.203125 -4.75 C 8.203125 -4.414062 8.207031 -4.109375 8.21875 -3.828125 C 8.226562 -3.546875 8.25 -3.207031 8.28125 -2.8125 C 8.3125 -2.425781 8.363281 -1.878906 8.4375 -1.171875 Z M 25.15625 -12.171875 L 25.296875 -12.171875 C 25.140625 -12.285156 24.957031 -12.40625 24.75 -12.53125 C 24.550781 -12.65625 24.332031 -12.796875 24.09375 -12.953125 C 23.570312 -13.285156 22.957031 -13.640625 22.25 -14.015625 C 21.3125 -14.523438 20.601562 -14.914062 20.125 -15.1875 C 19.644531 -15.457031 19.328125 -15.65625 19.171875 -15.78125 C 19.015625 -15.914062 18.9375 -16.019531 18.9375 -16.09375 C 18.9375 -16.207031 19.054688 -16.320312 19.296875 -16.4375 C 19.546875 -16.5625 19.789062 -16.625 20.03125 -16.625 C 20.457031 -16.625 21.253906 -16.34375 22.421875 -15.78125 C 23.597656 -15.226562 25.203125 -14.363281 27.234375 -13.1875 C 27.898438 -12.78125 28.394531 -12.46875 28.71875 -12.25 C 29.039062 -12.039062 29.25 -11.875 29.34375 -11.75 C 29.445312 -11.632812 29.5 -11.5 29.5 -11.34375 C 29.5 -11.09375 29.414062 -10.828125 29.25 -10.546875 C 29.082031 -10.273438 28.921875 -10.140625 28.765625 -10.140625 C 28.472656 -10.140625 28.050781 -10.335938 27.5 -10.734375 C 27.40625 -10.828125 27.269531 -10.925781 27.09375 -11.03125 C 26.914062 -11.144531 26.71875 -11.28125 26.5 -11.4375 C 26.09375 -11.28125 25.742188 -11.160156 25.453125 -11.078125 C 25.160156 -11.003906 24.828125 -10.925781 24.453125 -10.84375 C 23.492188 -10.6875 22.222656 -10.554688 20.640625 -10.453125 C 19.054688 -10.347656 17.375 -10.296875 15.59375 -10.296875 C 15.144531 -10.296875 14.488281 -10.300781 13.625 -10.3125 C 12.769531 -10.332031 11.832031 -10.351562 10.8125 -10.375 C 9.800781 -10.394531 8.828125 -10.414062 7.890625 -10.4375 C 5.929688 -10.5 4.660156 -10.820312 4.078125 -11.40625 C 3.898438 -11.582031 3.8125 -11.75 3.8125 -11.90625 C 3.8125 -12.332031 4.171875 -12.78125 4.890625 -13.25 C 5.359375 -13.539062 5.988281 -13.894531 6.78125 -14.3125 C 7.570312 -14.738281 8.46875 -15.195312 9.46875 -15.6875 C 10.46875 -16.175781 11.492188 -16.664062 12.546875 -17.15625 C 13.503906 -17.601562 14.164062 -17.925781 14.53125 -18.125 C 14.90625 -18.332031 15.09375 -18.476562 15.09375 -18.5625 C 15.09375 -18.613281 15.046875 -18.679688 14.953125 -18.765625 C 14.859375 -18.859375 14.8125 -18.914062 14.8125 -18.9375 C 14.8125 -18.976562 14.96875 -19.054688 15.28125 -19.171875 C 15.59375 -19.285156 15.84375 -19.34375 16.03125 -19.34375 C 16.15625 -19.34375 16.351562 -19.289062 16.625 -19.1875 C 16.894531 -19.082031 17.164062 -18.96875 17.4375 -18.84375 C 17.71875 -18.726562 17.925781 -18.613281 18.0625 -18.5 C 18.238281 -18.363281 18.328125 -18.253906 18.328125 -18.171875 C 18.328125 -18.097656 18.28125 -18.019531 18.1875 -17.9375 C 18.101562 -17.863281 17.835938 -17.726562 17.390625 -17.53125 C 16.953125 -17.332031 16.195312 -17 15.125 -16.53125 C 14.738281 -16.375 14.34375 -16.203125 13.9375 -16.015625 C 13.539062 -15.835938 13.144531 -15.660156 12.75 -15.484375 C 12.4375 -15.328125 12.015625 -15.117188 11.484375 -14.859375 C 10.960938 -14.609375 10.378906 -14.316406 9.734375 -13.984375 C 9.179688 -13.691406 8.648438 -13.425781 8.140625 -13.1875 C 7.640625 -12.957031 7.320312 -12.832031 7.1875 -12.8125 C 6.832031 -12.695312 6.65625 -12.570312 6.65625 -12.4375 C 6.65625 -12.28125 6.859375 -12.175781 7.265625 -12.125 C 7.679688 -12.070312 8.414062 -12.046875 9.46875 -12.046875 L 11.515625 -12.015625 C 12.203125 -11.984375 12.738281 -11.96875 13.125 -11.96875 C 13.519531 -11.96875 13.828125 -11.96875 14.046875 -11.96875 C 15.097656 -11.96875 16.289062 -11.972656 17.625 -11.984375 C 18.96875 -12.003906 20.296875 -12.03125 21.609375 -12.0625 C 22.921875 -12.09375 24.070312 -12.128906 25.0625 -12.171875 Z M 12.671875 -21.71875 L 12.671875 -20.234375 C 12.671875 -19.921875 12.648438 -19.671875 12.609375 -19.484375 C 12.566406 -19.296875 12.488281 -19.113281 12.375 -18.9375 C 12.15625 -18.625 11.910156 -18.46875 11.640625 -18.46875 C 11.484375 -18.46875 11.347656 -18.578125 11.234375 -18.796875 C 11.128906 -19.023438 11.078125 -19.316406 11.078125 -19.671875 L 11.078125 -21.609375 C 9.960938 -21.546875 9.035156 -21.476562 8.296875 -21.40625 C 7.554688 -21.34375 6.921875 -21.269531 6.390625 -21.1875 C 5.859375 -21.113281 5.3125 -21.019531 4.75 -20.90625 C 4.613281 -20.863281 4.535156 -20.84375 4.515625 -20.84375 C 4.398438 -20.84375 4.253906 -20.910156 4.078125 -21.046875 C 4.054688 -21.066406 4.039062 -21.097656 4.03125 -21.140625 C 4.019531 -21.179688 3.976562 -21.347656 3.90625 -21.640625 L 3.8125 -22.109375 C 3.8125 -22.203125 3.957031 -22.347656 4.25 -22.546875 C 4.25 -22.546875 4.296875 -22.582031 4.390625 -22.65625 C 4.492188 -22.738281 4.625 -22.835938 4.78125 -22.953125 C 5.070312 -23.191406 5.25 -23.3125 5.3125 -23.3125 C 5.363281 -23.3125 5.457031 -23.28125 5.59375 -23.21875 C 5.675781 -23.195312 5.84375 -23.148438 6.09375 -23.078125 C 6.351562 -23.015625 6.53125 -22.984375 6.625 -22.984375 C 6.84375 -22.984375 7.1875 -23.015625 7.65625 -23.078125 C 7.863281 -23.128906 8.164062 -23.164062 8.5625 -23.1875 C 8.96875 -23.207031 9.457031 -23.226562 10.03125 -23.25 C 10.125 -23.25 10.207031 -23.25 10.28125 -23.25 C 10.363281 -23.25 10.445312 -23.257812 10.53125 -23.28125 L 11.078125 -23.28125 L 11.078125 -24.859375 C 11.078125 -25.234375 10.972656 -25.507812 10.765625 -25.6875 C 10.609375 -25.84375 10.507812 -25.941406 10.46875 -25.984375 C 10.425781 -26.035156 10.40625 -26.09375 10.40625 -26.15625 C 10.40625 -26.269531 10.503906 -26.4375 10.703125 -26.65625 C 10.898438 -26.882812 11.046875 -27 11.140625 -27 C 11.234375 -27 11.390625 -26.957031 11.609375 -26.875 C 11.828125 -26.800781 12.050781 -26.707031 12.28125 -26.59375 C 12.519531 -26.476562 12.675781 -26.390625 12.75 -26.328125 C 12.925781 -26.148438 13.015625 -26.003906 13.015625 -25.890625 C 13.015625 -25.847656 12.992188 -25.757812 12.953125 -25.625 C 12.859375 -25.40625 12.785156 -25.238281 12.734375 -25.125 C 12.691406 -25.007812 12.671875 -24.863281 12.671875 -24.6875 L 12.671875 -23.390625 L 13.34375 -23.421875 L 13.984375 -23.421875 C 15.160156 -23.484375 16.332031 -23.515625 17.5 -23.515625 C 18.125 -23.515625 18.691406 -23.507812 19.203125 -23.5 C 19.710938 -23.488281 20.222656 -23.460938 20.734375 -23.421875 L 20.734375 -24.859375 C 20.734375 -25.234375 20.632812 -25.507812 20.4375 -25.6875 C 20.28125 -25.84375 20.179688 -25.941406 20.140625 -25.984375 C 20.097656 -26.035156 20.078125 -26.09375 20.078125 -26.15625 C 20.078125 -26.269531 20.175781 -26.4375 20.375 -26.65625 C 20.570312 -26.882812 20.71875 -27 20.8125 -27 C 20.894531 -27 21.046875 -26.957031 21.265625 -26.875 C 21.492188 -26.800781 21.71875 -26.707031 21.9375 -26.59375 C 22.164062 -26.476562 22.3125 -26.390625 22.375 -26.328125 C 22.582031 -26.171875 22.6875 -26.023438 22.6875 -25.890625 C 22.6875 -25.847656 22.660156 -25.757812 22.609375 -25.625 C 22.523438 -25.40625 22.457031 -25.238281 22.40625 -25.125 C 22.363281 -25.007812 22.34375 -24.863281 22.34375 -24.6875 L 22.34375 -23.3125 L 24.125 -23.15625 C 24.851562 -23.082031 25.429688 -23.03125 25.859375 -23 C 26.285156 -22.96875 26.628906 -22.9375 26.890625 -22.90625 C 27.160156 -22.882812 27.421875 -22.851562 27.671875 -22.8125 C 27.929688 -22.769531 28.265625 -22.710938 28.671875 -22.640625 C 29.023438 -22.597656 29.269531 -22.535156 29.40625 -22.453125 C 29.539062 -22.378906 29.609375 -22.285156 29.609375 -22.171875 C 29.609375 -21.992188 29.441406 -21.726562 29.109375 -21.375 C 28.898438 -21.175781 28.628906 -21.078125 28.296875 -21.078125 C 28.234375 -21.078125 28.148438 -21.082031 28.046875 -21.09375 C 27.953125 -21.101562 27.742188 -21.128906 27.421875 -21.171875 C 27.097656 -21.222656 26.554688 -21.289062 25.796875 -21.375 C 25.617188 -21.414062 25.238281 -21.457031 24.65625 -21.5 C 24.070312 -21.550781 23.300781 -21.597656 22.34375 -21.640625 L 22.34375 -20.234375 C 22.34375 -19.921875 22.320312 -19.671875 22.28125 -19.484375 C 22.238281 -19.296875 22.160156 -19.113281 22.046875 -18.9375 C 21.828125 -18.625 21.582031 -18.46875 21.3125 -18.46875 C 21.15625 -18.46875 21.019531 -18.578125 20.90625 -18.796875 C 20.789062 -19.023438 20.734375 -19.316406 20.734375 -19.671875 L 20.734375 -21.71875 C 20.265625 -21.738281 19.863281 -21.75 19.53125 -21.75 C 19.195312 -21.75 18.953125 -21.757812 18.796875 -21.78125 C 18.242188 -21.800781 17.769531 -21.816406 17.375 -21.828125 C 16.988281 -21.835938 16.71875 -21.84375 16.5625 -21.84375 C 16.363281 -21.84375 16.019531 -21.835938 15.53125 -21.828125 C 15.050781 -21.816406 14.550781 -21.800781 14.03125 -21.78125 C 13.507812 -21.757812 13.054688 -21.738281 12.671875 -21.71875 Z M 12.671875 -21.71875 "/></g></g></g><g fill="#dfdbd4" fill-opacity="1"><g transform="translate(130.969166, 89.95275)"><g><path d="M 26.625 -23.046875 L 26.5 -22.25 C 26.425781 -21.84375 26.289062 -21.492188 26.09375 -21.203125 C 26.3125 -21.117188 26.421875 -21.019531 26.421875 -20.90625 C 26.421875 -20.707031 26.296875 -20.507812 26.046875 -20.3125 C 25.804688 -20.125 25.566406 -20.03125 25.328125 -20.03125 C 25.234375 -20.03125 25.140625 -20.03125 25.046875 -20.03125 C 24.960938 -20.03125 24.804688 -20.046875 24.578125 -20.078125 C 24.359375 -20.117188 23.992188 -20.160156 23.484375 -20.203125 C 23.035156 -20.242188 22.441406 -20.285156 21.703125 -20.328125 C 20.972656 -20.378906 20.226562 -20.425781 19.46875 -20.46875 C 18.707031 -20.519531 18.050781 -20.546875 17.5 -20.546875 L 17.46875 -20.4375 C 17.4375 -19.769531 17.320312 -19.222656 17.125 -18.796875 C 23.394531 -18.597656 28.613281 -18.085938 32.78125 -17.265625 L 32.78125 -17.09375 C 32.488281 -17.070312 32.273438 -17.054688 32.140625 -17.046875 C 32.015625 -17.035156 31.882812 -17.019531 31.75 -17 C 31.59375 -16.945312 31.210938 -16.765625 30.609375 -16.453125 C 30.316406 -16.296875 29.992188 -16.21875 29.640625 -16.21875 C 29.460938 -16.21875 29.253906 -16.226562 29.015625 -16.25 C 28.785156 -16.28125 28.535156 -16.316406 28.265625 -16.359375 C 26.234375 -16.710938 24.1875 -16.984375 22.125 -17.171875 C 20.0625 -17.367188 18.171875 -17.46875 16.453125 -17.46875 C 15.960938 -17.46875 15.273438 -17.441406 14.390625 -17.390625 C 13.515625 -17.347656 12.582031 -17.296875 11.59375 -17.234375 C 10.601562 -17.179688 9.671875 -17.117188 8.796875 -17.046875 C 7.929688 -16.984375 7.265625 -16.921875 6.796875 -16.859375 C 6.015625 -16.773438 5.410156 -16.679688 4.984375 -16.578125 C 4.554688 -16.472656 4.15625 -16.320312 3.78125 -16.125 C 3.40625 -15.925781 2.878906 -15.601562 2.203125 -15.15625 C 2.023438 -15.039062 1.867188 -14.984375 1.734375 -14.984375 C 1.578125 -14.984375 1.40625 -15.078125 1.21875 -15.265625 C 1.03125 -15.460938 0.9375 -15.648438 0.9375 -15.828125 C 0.9375 -16.117188 1.25 -16.507812 1.875 -17 C 2.050781 -17.175781 2.238281 -17.347656 2.4375 -17.515625 C 2.644531 -17.679688 2.847656 -17.84375 3.046875 -18 C 3.398438 -18.289062 3.632812 -18.4375 3.75 -18.4375 C 3.851562 -18.4375 4.050781 -18.367188 4.34375 -18.234375 C 4.519531 -18.160156 4.6875 -18.125 4.84375 -18.125 C 5.070312 -18.125 5.351562 -18.140625 5.6875 -18.171875 C 6.019531 -18.210938 6.410156 -18.273438 6.859375 -18.359375 C 7.097656 -18.410156 7.316406 -18.441406 7.515625 -18.453125 C 7.722656 -18.460938 8.003906 -18.476562 8.359375 -18.5 C 8.722656 -18.519531 9.253906 -18.546875 9.953125 -18.578125 C 10.648438 -18.617188 11.625 -18.671875 12.875 -18.734375 C 13.59375 -18.773438 14.203125 -18.800781 14.703125 -18.8125 C 15.203125 -18.820312 15.675781 -18.828125 16.125 -18.828125 C 16.101562 -19.117188 16.082031 -19.382812 16.0625 -19.625 C 16.039062 -19.875 16.015625 -20.179688 15.984375 -20.546875 C 14.984375 -20.515625 14.101562 -20.484375 13.34375 -20.453125 C 12.582031 -20.421875 11.882812 -20.378906 11.25 -20.328125 C 10.613281 -20.285156 9.953125 -20.234375 9.265625 -20.171875 L 8.390625 -20.109375 C 8.347656 -19.898438 8.257812 -19.722656 8.125 -19.578125 C 7.988281 -19.441406 7.859375 -19.375 7.734375 -19.375 C 7.546875 -19.375 7.359375 -19.578125 7.171875 -19.984375 C 6.984375 -20.398438 6.828125 -20.921875 6.703125 -21.546875 C 6.578125 -22.171875 6.515625 -22.785156 6.515625 -23.390625 C 6.515625 -23.921875 6.644531 -24.410156 6.90625 -24.859375 C 7.164062 -25.304688 7.453125 -25.53125 7.765625 -25.53125 C 8.003906 -25.53125 8.191406 -25.359375 8.328125 -25.015625 C 8.910156 -25.085938 9.4375 -25.140625 9.90625 -25.171875 C 10.375 -25.203125 10.929688 -25.234375 11.578125 -25.265625 C 12.222656 -25.304688 13.101562 -25.335938 14.21875 -25.359375 L 15.859375 -25.421875 L 15.859375 -25.71875 C 15.835938 -26.144531 15.789062 -26.425781 15.71875 -26.5625 C 15.65625 -26.695312 15.5 -26.851562 15.25 -27.03125 C 15.1875 -27.070312 15.15625 -27.113281 15.15625 -27.15625 C 15.15625 -27.269531 15.269531 -27.414062 15.5 -27.59375 C 15.738281 -27.769531 15.9375 -27.859375 16.09375 -27.859375 C 16.289062 -27.859375 16.582031 -27.789062 16.96875 -27.65625 C 17.363281 -27.53125 17.660156 -27.398438 17.859375 -27.265625 C 17.992188 -27.128906 18.0625 -27.003906 18.0625 -26.890625 C 18.0625 -26.847656 18.019531 -26.75 17.9375 -26.59375 C 17.84375 -26.4375 17.78125 -26.316406 17.75 -26.234375 C 17.71875 -26.160156 17.703125 -26.082031 17.703125 -26 L 17.65625 -25.421875 C 18.101562 -25.398438 18.546875 -25.378906 18.984375 -25.359375 C 19.421875 -25.335938 19.914062 -25.300781 20.46875 -25.25 C 21.03125 -25.207031 21.582031 -25.164062 22.125 -25.125 C 22.675781 -25.082031 23.21875 -25.035156 23.75 -24.984375 C 24.195312 -24.941406 24.488281 -24.910156 24.625 -24.890625 C 24.707031 -24.867188 24.796875 -24.859375 24.890625 -24.859375 C 24.972656 -24.859375 25.109375 -24.910156 25.296875 -25.015625 C 25.472656 -25.148438 25.601562 -25.21875 25.6875 -25.21875 C 25.820312 -25.21875 25.992188 -25.148438 26.203125 -25.015625 C 26.421875 -24.890625 26.609375 -24.75 26.765625 -24.59375 C 26.921875 -24.4375 27 -24.300781 27 -24.1875 C 27 -24.050781 26.941406 -23.875 26.828125 -23.65625 C 26.691406 -23.425781 26.625 -23.222656 26.625 -23.046875 Z M 17.59375 -24.015625 L 17.53125 -21.875 C 18.132812 -21.875 18.890625 -21.851562 19.796875 -21.8125 C 20.710938 -21.769531 21.640625 -21.710938 22.578125 -21.640625 C 23.515625 -21.578125 24.304688 -21.507812 24.953125 -21.4375 C 24.929688 -21.53125 24.921875 -21.609375 24.921875 -21.671875 C 24.921875 -21.742188 24.921875 -21.8125 24.921875 -21.875 L 24.953125 -23.015625 L 24.953125 -23.390625 C 24.953125 -23.546875 24.796875 -23.625 24.484375 -23.625 C 24.460938 -23.625 24.382812 -23.628906 24.25 -23.640625 C 24.113281 -23.648438 23.957031 -23.664062 23.78125 -23.6875 C 23.40625 -23.726562 22.898438 -23.765625 22.265625 -23.796875 C 21.628906 -23.835938 20.578125 -23.890625 19.109375 -23.953125 Z M 15.890625 -24.046875 L 14.453125 -23.984375 C 13.472656 -23.960938 12.675781 -23.9375 12.0625 -23.90625 C 11.445312 -23.875 10.9375 -23.84375 10.53125 -23.8125 C 10.132812 -23.789062 9.769531 -23.765625 9.4375 -23.734375 C 9.101562 -23.703125 8.722656 -23.648438 8.296875 -23.578125 C 8.273438 -23.421875 8.257812 -23.273438 8.25 -23.140625 C 8.238281 -23.015625 8.234375 -22.875 8.234375 -22.71875 C 8.234375 -22.5625 8.238281 -22.351562 8.25 -22.09375 C 8.257812 -21.84375 8.273438 -21.625 8.296875 -21.4375 C 9.117188 -21.53125 9.992188 -21.597656 10.921875 -21.640625 C 11.847656 -21.691406 13.101562 -21.75 14.6875 -21.8125 L 15.953125 -21.84375 Z M 9.296875 -3.609375 L 8.4375 -3.515625 C 8.300781 -3.023438 8.128906 -2.78125 7.921875 -2.78125 C 7.585938 -2.78125 7.34375 -3.328125 7.1875 -4.421875 C 7.144531 -4.816406 7.113281 -5.15625 7.09375 -5.4375 C 7.070312 -5.71875 7.050781 -6.222656 7.03125 -6.953125 C 7.03125 -7.066406 7.015625 -7.378906 6.984375 -7.890625 C 6.960938 -8.410156 6.945312 -8.96875 6.9375 -9.5625 C 6.925781 -10.164062 6.914062 -10.695312 6.90625 -11.15625 C 6.894531 -11.613281 6.890625 -11.851562 6.890625 -11.875 C 6.890625 -12.476562 6.953125 -13.066406 7.078125 -13.640625 C 7.203125 -14.222656 7.359375 -14.703125 7.546875 -15.078125 C 7.734375 -15.460938 7.925781 -15.65625 8.125 -15.65625 C 8.332031 -15.65625 8.515625 -15.519531 8.671875 -15.25 C 11.054688 -15.632812 13.640625 -15.828125 16.421875 -15.828125 C 16.960938 -15.828125 17.421875 -15.820312 17.796875 -15.8125 C 18.171875 -15.800781 18.535156 -15.785156 18.890625 -15.765625 C 19.253906 -15.753906 19.664062 -15.726562 20.125 -15.6875 C 20.582031 -15.644531 21.175781 -15.585938 21.90625 -15.515625 C 22.53125 -15.472656 22.976562 -15.4375 23.25 -15.40625 C 23.519531 -15.375 23.707031 -15.34375 23.8125 -15.3125 C 23.925781 -15.289062 24.039062 -15.257812 24.15625 -15.21875 C 24.332031 -15.132812 24.460938 -15.09375 24.546875 -15.09375 C 24.617188 -15.09375 24.789062 -15.171875 25.0625 -15.328125 C 25.164062 -15.390625 25.273438 -15.421875 25.390625 -15.421875 C 25.546875 -15.421875 25.738281 -15.34375 25.96875 -15.1875 C 26.207031 -15.03125 26.421875 -14.847656 26.609375 -14.640625 C 26.796875 -14.441406 26.890625 -14.28125 26.890625 -14.15625 C 26.890625 -14.082031 26.859375 -13.992188 26.796875 -13.890625 C 26.640625 -13.660156 26.53125 -13.414062 26.46875 -13.15625 C 26.414062 -12.90625 26.378906 -12.507812 26.359375 -11.96875 L 26.359375 -7.265625 C 26.359375 -6.191406 26.191406 -5.351562 25.859375 -4.75 C 26.234375 -4.632812 26.421875 -4.507812 26.421875 -4.375 C 26.421875 -4.25 26.222656 -4.050781 25.828125 -3.78125 C 25.492188 -3.582031 25.179688 -3.484375 24.890625 -3.484375 C 24.597656 -3.484375 24.226562 -3.515625 23.78125 -3.578125 C 23.25 -3.671875 22.53125 -3.75 21.625 -3.8125 C 20.71875 -3.875 19.78125 -3.925781 18.8125 -3.96875 C 17.84375 -4.019531 16.96875 -4.046875 16.1875 -4.046875 C 15.03125 -4.046875 13.921875 -4.007812 12.859375 -3.9375 C 11.804688 -3.875 10.617188 -3.765625 9.296875 -3.609375 Z M 8.671875 -7.1875 L 8.59375 -5.15625 C 10.070312 -5.289062 11.445312 -5.394531 12.71875 -5.46875 C 13.988281 -5.550781 15.023438 -5.59375 15.828125 -5.59375 C 16.378906 -5.59375 17.050781 -5.570312 17.84375 -5.53125 C 18.632812 -5.5 19.457031 -5.453125 20.3125 -5.390625 C 21.175781 -5.335938 22.003906 -5.269531 22.796875 -5.1875 C 23.585938 -5.113281 24.265625 -5.046875 24.828125 -4.984375 C 24.753906 -5.160156 24.703125 -5.421875 24.671875 -5.765625 C 24.640625 -6.117188 24.625 -6.503906 24.625 -6.921875 L 24.625 -7.296875 C 23.375 -7.453125 22.078125 -7.554688 20.734375 -7.609375 C 19.398438 -7.660156 17.765625 -7.6875 15.828125 -7.6875 C 15.203125 -7.6875 14.660156 -7.679688 14.203125 -7.671875 C 13.742188 -7.660156 13.28125 -7.640625 12.8125 -7.609375 C 12.34375 -7.578125 11.785156 -7.523438 11.140625 -7.453125 C 10.492188 -7.390625 9.671875 -7.300781 8.671875 -7.1875 Z M 8.671875 -10.640625 L 8.671875 -8.671875 C 9.804688 -8.796875 10.945312 -8.890625 12.09375 -8.953125 C 13.238281 -9.023438 14.484375 -9.0625 15.828125 -9.0625 C 16.554688 -9.0625 17.195312 -9.054688 17.75 -9.046875 C 18.3125 -9.035156 18.867188 -9.015625 19.421875 -8.984375 C 19.984375 -8.953125 20.609375 -8.898438 21.296875 -8.828125 C 21.992188 -8.765625 22.832031 -8.675781 23.8125 -8.5625 L 24.625 -8.46875 L 24.625 -10.671875 L 23.859375 -10.734375 C 23.253906 -10.785156 22.570312 -10.835938 21.8125 -10.890625 C 21.050781 -10.941406 20.285156 -10.984375 19.515625 -11.015625 C 18.742188 -11.054688 18.03125 -11.085938 17.375 -11.109375 C 16.71875 -11.128906 16.203125 -11.140625 15.828125 -11.140625 C 14.660156 -11.140625 13.523438 -11.097656 12.421875 -11.015625 C 11.316406 -10.941406 10.097656 -10.816406 8.765625 -10.640625 Z M 8.734375 -12.078125 L 8.828125 -12.109375 C 10.304688 -12.265625 11.582031 -12.375 12.65625 -12.4375 C 13.738281 -12.507812 14.738281 -12.546875 15.65625 -12.546875 C 16.164062 -12.546875 16.828125 -12.519531 17.640625 -12.46875 C 18.460938 -12.425781 19.320312 -12.367188 20.21875 -12.296875 C 21.125 -12.234375 21.96875 -12.160156 22.75 -12.078125 C 23.53125 -12.003906 24.15625 -11.9375 24.625 -11.875 L 24.625 -12.203125 C 24.625 -12.921875 24.59375 -13.359375 24.53125 -13.515625 C 24.476562 -13.671875 24.304688 -13.796875 24.015625 -13.890625 C 23.878906 -13.929688 23.53125 -13.976562 22.96875 -14.03125 C 22.414062 -14.09375 21.757812 -14.148438 21 -14.203125 C 20.25 -14.253906 19.503906 -14.296875 18.765625 -14.328125 C 18.023438 -14.367188 17.398438 -14.390625 16.890625 -14.390625 C 15.304688 -14.390625 13.914062 -14.34375 12.71875 -14.25 C 11.53125 -14.164062 10.3125 -14 9.0625 -13.75 L 9.03125 -13.65625 L 8.9375 -13.3125 C 8.820312 -12.9375 8.753906 -12.523438 8.734375 -12.078125 Z M 11.40625 -3.171875 C 11.5625 -3.171875 11.738281 -3.070312 11.9375 -2.875 C 12.144531 -2.675781 12.25 -2.488281 12.25 -2.3125 C 12.25 -2.101562 11.96875 -1.753906 11.40625 -1.265625 C 10.851562 -0.773438 10.25 -0.34375 9.59375 0.03125 C 8.707031 0.539062 7.78125 0.945312 6.8125 1.25 C 5.84375 1.550781 4.941406 1.703125 4.109375 1.703125 C 3.671875 1.703125 3.472656 1.515625 3.515625 1.140625 C 3.535156 0.941406 3.597656 0.695312 3.703125 0.40625 C 3.816406 0.113281 3.929688 -0.109375 4.046875 -0.265625 C 4.109375 -0.359375 4.191406 -0.410156 4.296875 -0.421875 C 4.398438 -0.429688 4.726562 -0.445312 5.28125 -0.46875 C 5.726562 -0.46875 6.253906 -0.539062 6.859375 -0.6875 C 7.460938 -0.832031 8.046875 -1.007812 8.609375 -1.21875 C 9.179688 -1.425781 9.65625 -1.640625 10.03125 -1.859375 C 10.414062 -2.085938 10.609375 -2.28125 10.609375 -2.4375 C 10.609375 -2.488281 10.597656 -2.523438 10.578125 -2.546875 C 10.523438 -2.628906 10.5 -2.679688 10.5 -2.703125 C 10.5 -2.773438 10.613281 -2.867188 10.84375 -2.984375 C 11.082031 -3.109375 11.269531 -3.171875 11.40625 -3.171875 Z M 30 -0.03125 L 30 0.09375 C 29.71875 0.25 29.503906 0.378906 29.359375 0.484375 C 29.210938 0.585938 29.070312 0.691406 28.9375 0.796875 C 28.445312 1.242188 28.140625 1.503906 28.015625 1.578125 C 27.890625 1.660156 27.726562 1.703125 27.53125 1.703125 C 27.3125 1.703125 27.046875 1.632812 26.734375 1.5 C 26.421875 1.363281 25.847656 1.050781 25.015625 0.5625 C 24.035156 -0.0078125 23.144531 -0.664062 22.34375 -1.40625 C 22.125 -1.601562 21.972656 -1.734375 21.890625 -1.796875 C 21.816406 -1.867188 21.757812 -1.914062 21.71875 -1.9375 C 21.644531 -1.976562 21.507812 -2.015625 21.3125 -2.046875 C 21.15625 -2.046875 21.078125 -2.144531 21.078125 -2.34375 C 21.078125 -2.382812 21.109375 -2.484375 21.171875 -2.640625 C 21.242188 -2.796875 21.289062 -2.882812 21.3125 -2.90625 C 21.351562 -2.957031 21.398438 -2.988281 21.453125 -3 C 21.515625 -3.007812 21.679688 -3.015625 21.953125 -3.015625 L 22.515625 -3.078125 C 22.554688 -3.078125 22.625 -3.007812 22.71875 -2.875 C 22.9375 -2.582031 23.242188 -2.316406 23.640625 -2.078125 C 24.046875 -1.847656 24.804688 -1.515625 25.921875 -1.078125 C 26.796875 -0.734375 27.515625 -0.492188 28.078125 -0.359375 C 28.648438 -0.234375 29.289062 -0.125 30 -0.03125 Z M 30 -0.03125 "/></g></g></g><g fill="#dfdbd4" fill-opacity="1"><g transform="translate(168.428668, 89.95275)"><g><path d="M 32.78125 -0.4375 L 32.6875 -0.265625 C 32.53125 -0.203125 32.394531 -0.171875 32.28125 -0.171875 C 32.0625 -0.0976562 31.84375 -0.03125 31.625 0.03125 C 31.414062 0.101562 31.300781 0.148438 31.28125 0.171875 C 30.5625 0.523438 30.09375 0.703125 29.875 0.703125 C 29.601562 0.703125 29.195312 0.441406 28.65625 -0.078125 C 28.125 -0.609375 27.535156 -1.300781 26.890625 -2.15625 C 26.242188 -3.019531 25.617188 -3.957031 25.015625 -4.96875 C 24.421875 -5.976562 23.898438 -6.960938 23.453125 -7.921875 C 23.117188 -6.054688 22.347656 -4.472656 21.140625 -3.171875 C 20.273438 -2.191406 19.0625 -1.289062 17.5 -0.46875 C 16.207031 0.25 15.3125 0.609375 14.8125 0.609375 C 14.320312 0.609375 14.078125 0.21875 14.078125 -0.5625 C 14.078125 -0.988281 14.164062 -1.3125 14.34375 -1.53125 C 14.53125 -1.757812 14.84375 -1.914062 15.28125 -2 C 17.269531 -2.5 18.859375 -3.351562 20.046875 -4.5625 C 21.242188 -5.78125 21.953125 -7.289062 22.171875 -9.09375 C 20.835938 -9.03125 19.765625 -8.9375 18.953125 -8.8125 C 18.140625 -8.6875 17.507812 -8.535156 17.0625 -8.359375 C 16.863281 -8.273438 16.660156 -8.234375 16.453125 -8.234375 C 16.296875 -8.234375 16.144531 -8.3125 16 -8.46875 C 15.863281 -8.625 15.796875 -8.800781 15.796875 -9 C 15.796875 -9.15625 15.820312 -9.273438 15.875 -9.359375 C 15.925781 -9.453125 16.097656 -9.675781 16.390625 -10.03125 C 16.585938 -10.28125 16.710938 -10.429688 16.765625 -10.484375 C 16.828125 -10.546875 16.90625 -10.597656 17 -10.640625 C 17.175781 -10.753906 17.332031 -10.8125 17.46875 -10.8125 C 17.507812 -10.8125 17.550781 -10.796875 17.59375 -10.765625 C 17.632812 -10.742188 17.734375 -10.664062 17.890625 -10.53125 C 18.046875 -10.425781 18.226562 -10.375 18.4375 -10.375 C 18.5 -10.375 18.570312 -10.375 18.65625 -10.375 C 18.75 -10.375 18.851562 -10.382812 18.96875 -10.40625 C 19.4375 -10.46875 19.976562 -10.519531 20.59375 -10.5625 C 21.207031 -10.613281 21.789062 -10.648438 22.34375 -10.671875 C 22.363281 -10.984375 22.378906 -11.285156 22.390625 -11.578125 C 22.398438 -11.867188 22.40625 -12.15625 22.40625 -12.4375 C 22.40625 -12.75 22.382812 -12.960938 22.34375 -13.078125 C 22.300781 -13.191406 22.171875 -13.335938 21.953125 -13.515625 C 21.816406 -13.648438 21.75 -13.738281 21.75 -13.78125 C 21.75 -13.820312 21.78125 -13.878906 21.84375 -13.953125 C 21.863281 -14.015625 21.929688 -14.101562 22.046875 -14.21875 C 22.222656 -14.457031 22.390625 -14.578125 22.546875 -14.578125 C 22.660156 -14.578125 22.835938 -14.523438 23.078125 -14.421875 C 23.328125 -14.328125 23.550781 -14.210938 23.75 -14.078125 C 23.925781 -13.953125 24.015625 -13.820312 24.015625 -13.6875 C 24.015625 -13.613281 23.960938 -13.351562 23.859375 -12.90625 C 23.804688 -12.78125 23.78125 -12.5625 23.78125 -12.25 C 23.78125 -11.976562 23.78125 -11.722656 23.78125 -11.484375 C 23.78125 -11.253906 23.757812 -10.984375 23.71875 -10.671875 C 24.5625 -10.671875 25.289062 -10.65625 25.90625 -10.625 C 26.519531 -10.59375 27.109375 -10.550781 27.671875 -10.5 C 28.242188 -10.457031 28.867188 -10.390625 29.546875 -10.296875 C 30.210938 -10.234375 30.546875 -10.09375 30.546875 -9.875 C 30.546875 -9.800781 30.519531 -9.722656 30.46875 -9.640625 C 30.425781 -9.566406 30.296875 -9.394531 30.078125 -9.125 C 29.941406 -8.945312 29.828125 -8.835938 29.734375 -8.796875 C 29.648438 -8.753906 29.492188 -8.734375 29.265625 -8.734375 C 28.984375 -8.734375 28.640625 -8.765625 28.234375 -8.828125 C 27.859375 -8.878906 27.335938 -8.925781 26.671875 -8.96875 C 26.015625 -9.007812 25.019531 -9.0625 23.6875 -9.125 C 24.113281 -8.476562 24.601562 -7.789062 25.15625 -7.0625 C 25.71875 -6.34375 26.3125 -5.640625 26.9375 -4.953125 C 27.707031 -4.109375 28.390625 -3.410156 28.984375 -2.859375 C 29.578125 -2.316406 30.164062 -1.863281 30.75 -1.5 C 31.34375 -1.144531 32.019531 -0.789062 32.78125 -0.4375 Z M 19.53125 -17 C 20.175781 -17.039062 20.6875 -17.070312 21.0625 -17.09375 C 21.445312 -17.113281 21.789062 -17.128906 22.09375 -17.140625 C 22.394531 -17.148438 22.757812 -17.15625 23.1875 -17.15625 C 24.988281 -17.15625 26.75 -17.035156 28.46875 -16.796875 C 28.820312 -16.753906 29.066406 -16.695312 29.203125 -16.625 C 29.335938 -16.5625 29.40625 -16.472656 29.40625 -16.359375 C 29.40625 -16.203125 29.328125 -16 29.171875 -15.75 C 28.972656 -15.4375 28.691406 -15.28125 28.328125 -15.28125 C 28.242188 -15.28125 28.140625 -15.285156 28.015625 -15.296875 C 27.890625 -15.316406 27.75 -15.335938 27.59375 -15.359375 C 27.394531 -15.378906 27.046875 -15.398438 26.546875 -15.421875 C 26.046875 -15.441406 25.515625 -15.460938 24.953125 -15.484375 C 24.398438 -15.503906 23.921875 -15.515625 23.515625 -15.515625 C 22.890625 -15.515625 22.140625 -15.488281 21.265625 -15.4375 C 20.398438 -15.382812 19.535156 -15.300781 18.671875 -15.1875 C 18.304688 -14.582031 17.914062 -14.078125 17.5 -13.671875 C 17.09375 -13.273438 16.757812 -13.078125 16.5 -13.078125 C 16.34375 -13.078125 16.207031 -13.164062 16.09375 -13.34375 C 15.976562 -13.519531 15.921875 -13.753906 15.921875 -14.046875 C 15.921875 -14.429688 15.953125 -14.703125 16.015625 -14.859375 C 16.085938 -15.015625 16.222656 -15.144531 16.421875 -15.25 C 16.710938 -15.425781 16.984375 -15.628906 17.234375 -15.859375 C 17.492188 -16.097656 17.703125 -16.34375 17.859375 -16.59375 C 18.265625 -17.257812 18.5 -17.660156 18.5625 -17.796875 C 18.632812 -17.929688 18.671875 -18.054688 18.671875 -18.171875 C 18.671875 -18.210938 18.644531 -18.273438 18.59375 -18.359375 C 18.46875 -18.546875 18.40625 -18.660156 18.40625 -18.703125 C 18.40625 -18.742188 18.488281 -18.847656 18.65625 -19.015625 C 18.820312 -19.179688 18.9375 -19.265625 19 -19.265625 C 19.132812 -19.265625 19.320312 -19.128906 19.5625 -18.859375 C 19.8125 -18.597656 19.9375 -18.390625 19.9375 -18.234375 C 19.9375 -18.117188 19.890625 -17.960938 19.796875 -17.765625 C 19.796875 -17.765625 19.78125 -17.722656 19.75 -17.640625 C 19.71875 -17.566406 19.691406 -17.472656 19.671875 -17.359375 C 19.648438 -17.273438 19.632812 -17.207031 19.625 -17.15625 C 19.613281 -17.113281 19.582031 -17.0625 19.53125 -17 Z M 8.4375 -26.421875 L 8.828125 -26.234375 C 9.367188 -25.984375 9.75 -25.796875 9.96875 -25.671875 C 10.1875 -25.546875 10.332031 -25.460938 10.40625 -25.421875 C 10.488281 -25.378906 10.554688 -25.320312 10.609375 -25.25 C 10.785156 -25.070312 10.875 -24.90625 10.875 -24.75 C 10.875 -24.613281 10.757812 -24.378906 10.53125 -24.046875 C 10.445312 -23.941406 10.375 -23.835938 10.3125 -23.734375 C 10.257812 -23.628906 10.222656 -23.554688 10.203125 -23.515625 C 10.203125 -23.492188 10.1875 -23.367188 10.15625 -23.140625 C 10.125 -22.921875 10.082031 -22.625 10.03125 -22.25 C 10.007812 -21.914062 9.921875 -21.59375 9.765625 -21.28125 C 10.273438 -21.28125 10.867188 -21.265625 11.546875 -21.234375 C 12.234375 -21.210938 12.859375 -21.1875 13.421875 -21.15625 C 13.992188 -21.125 14.367188 -21.085938 14.546875 -21.046875 C 15.171875 -20.890625 15.484375 -20.722656 15.484375 -20.546875 C 15.484375 -20.492188 15.46875 -20.441406 15.4375 -20.390625 C 15.40625 -20.335938 15.300781 -20.1875 15.125 -19.9375 C 14.894531 -19.644531 14.59375 -19.5 14.21875 -19.5 C 13.96875 -19.5 13.585938 -19.535156 13.078125 -19.609375 C 12.898438 -19.648438 11.707031 -19.679688 9.5 -19.703125 C 9.539062 -19.273438 9.570312 -18.914062 9.59375 -18.625 C 9.625 -18.34375 9.640625 -18.066406 9.640625 -17.796875 C 9.640625 -17.503906 9.625 -17.203125 9.59375 -16.890625 C 9.570312 -16.578125 9.539062 -16.210938 9.5 -15.796875 L 9.59375 -15.75 C 10.21875 -15.6875 10.691406 -15.628906 11.015625 -15.578125 C 11.347656 -15.535156 11.617188 -15.484375 11.828125 -15.421875 C 12.035156 -15.359375 12.265625 -15.269531 12.515625 -15.15625 C 12.648438 -15.082031 12.75 -15.046875 12.8125 -15.046875 C 12.90625 -15.046875 13.015625 -15.082031 13.140625 -15.15625 C 13.273438 -15.21875 13.378906 -15.25 13.453125 -15.25 C 13.648438 -15.25 13.816406 -15.128906 13.953125 -14.890625 C 14.085938 -14.660156 14.15625 -14.359375 14.15625 -13.984375 C 14.15625 -12.796875 14.039062 -11.519531 13.8125 -10.15625 C 13.59375 -8.800781 13.285156 -7.457031 12.890625 -6.125 C 12.503906 -4.800781 12.054688 -3.609375 11.546875 -2.546875 C 10.984375 -1.410156 10.429688 -0.523438 9.890625 0.109375 C 9.359375 0.753906 8.894531 1.078125 8.5 1.078125 C 8.050781 1.078125 7.828125 0.460938 7.828125 -0.765625 C 7.828125 -1.117188 7.984375 -1.421875 8.296875 -1.671875 C 8.804688 -2.117188 9.222656 -2.582031 9.546875 -3.0625 C 9.867188 -3.539062 10.242188 -4.238281 10.671875 -5.15625 C 11.078125 -6 11.429688 -6.910156 11.734375 -7.890625 C 12.046875 -8.867188 12.289062 -9.804688 12.46875 -10.703125 C 12.65625 -11.597656 12.75 -12.332031 12.75 -12.90625 C 12.75 -13.15625 12.679688 -13.378906 12.546875 -13.578125 C 12.453125 -13.734375 12.015625 -13.820312 11.234375 -13.84375 C 10.992188 -13.84375 10.550781 -13.945312 9.90625 -14.15625 L 9.234375 -14.3125 C 9.078125 -13.6875 8.914062 -13.140625 8.75 -12.671875 C 8.582031 -12.203125 8.320312 -11.613281 7.96875 -10.90625 C 7.132812 -9.207031 6.300781 -7.742188 5.46875 -6.515625 C 4.632812 -5.296875 3.710938 -4.195312 2.703125 -3.21875 C 2.304688 -2.8125 2 -2.53125 1.78125 -2.375 C 1.570312 -2.21875 1.398438 -2.140625 1.265625 -2.140625 C 1.046875 -2.140625 0.914062 -2.238281 0.875 -2.4375 C 0.820312 -2.570312 0.773438 -2.804688 0.734375 -3.140625 C 0.691406 -3.472656 0.671875 -3.753906 0.671875 -3.984375 C 0.671875 -4.242188 0.75 -4.476562 0.90625 -4.6875 C 1.0625 -4.90625 1.375 -5.191406 1.84375 -5.546875 C 2.257812 -5.910156 2.769531 -6.460938 3.375 -7.203125 C 3.976562 -7.953125 4.582031 -8.789062 5.1875 -9.71875 C 5.789062 -10.644531 6.300781 -11.519531 6.71875 -12.34375 C 7.238281 -13.394531 7.632812 -14.425781 7.90625 -15.4375 C 8.1875 -16.445312 8.328125 -17.410156 8.328125 -18.328125 C 8.328125 -18.578125 8.316406 -18.78125 8.296875 -18.9375 C 8.273438 -19.09375 8.242188 -19.347656 8.203125 -19.703125 C 6.992188 -19.609375 5.941406 -19.503906 5.046875 -19.390625 C 4.160156 -19.285156 3.457031 -19.144531 2.9375 -18.96875 L 2.703125 -18.9375 C 2.546875 -18.9375 2.375 -19.03125 2.1875 -19.21875 C 2 -19.40625 1.90625 -19.578125 1.90625 -19.734375 C 1.90625 -20.023438 2.046875 -20.34375 2.328125 -20.6875 C 2.609375 -21.03125 2.847656 -21.203125 3.046875 -21.203125 C 3.066406 -21.203125 3.144531 -21.179688 3.28125 -21.140625 C 3.4375 -21.078125 3.535156 -21.039062 3.578125 -21.03125 C 3.617188 -21.019531 3.6875 -21.015625 3.78125 -21.015625 C 3.914062 -21.015625 4.066406 -21.019531 4.234375 -21.03125 C 4.398438 -21.039062 4.582031 -21.054688 4.78125 -21.078125 C 5.050781 -21.117188 5.3125 -21.144531 5.5625 -21.15625 C 5.820312 -21.164062 6.175781 -21.179688 6.625 -21.203125 C 7.070312 -21.234375 7.707031 -21.257812 8.53125 -21.28125 L 8.625 -21.28125 C 8.582031 -21.539062 8.554688 -21.757812 8.546875 -21.9375 C 8.535156 -22.125 8.519531 -22.53125 8.5 -23.15625 C 8.476562 -23.800781 8.4375 -24.203125 8.375 -24.359375 C 8.320312 -24.515625 8.171875 -24.671875 7.921875 -24.828125 C 7.660156 -25.003906 7.5 -25.113281 7.4375 -25.15625 C 7.382812 -25.195312 7.359375 -25.253906 7.359375 -25.328125 C 7.359375 -25.410156 7.425781 -25.519531 7.5625 -25.65625 L 7.796875 -25.921875 L 8.0625 -26.234375 C 8.101562 -26.273438 8.164062 -26.320312 8.25 -26.375 C 8.34375 -26.4375 8.40625 -26.453125 8.4375 -26.421875 Z M 19.671875 -21.3125 L 18.703125 -21.25 C 18.367188 -20.53125 18.019531 -19.96875 17.65625 -19.5625 C 17.300781 -19.164062 16.96875 -18.96875 16.65625 -18.96875 C 16.300781 -18.96875 16.125 -19.414062 16.125 -20.3125 C 16.125 -20.644531 16.15625 -20.867188 16.21875 -20.984375 C 16.289062 -21.109375 16.492188 -21.304688 16.828125 -21.578125 C 17.066406 -21.773438 17.332031 -22.113281 17.625 -22.59375 C 17.914062 -23.070312 18.140625 -23.535156 18.296875 -23.984375 C 18.335938 -24.097656 18.382812 -24.316406 18.4375 -24.640625 C 18.5 -24.960938 18.53125 -25.15625 18.53125 -25.21875 C 18.53125 -25.3125 18.515625 -25.378906 18.484375 -25.421875 C 18.453125 -25.460938 18.347656 -25.53125 18.171875 -25.625 C 18.117188 -25.664062 18.09375 -25.695312 18.09375 -25.71875 C 18.09375 -25.8125 18.207031 -25.992188 18.4375 -26.265625 C 18.539062 -26.421875 18.695312 -26.5 18.90625 -26.5 C 19.144531 -26.5 19.375 -26.414062 19.59375 -26.25 C 19.820312 -26.082031 19.9375 -25.90625 19.9375 -25.71875 C 19.9375 -25.4375 19.875 -25 19.75 -24.40625 C 19.625 -23.8125 19.5 -23.316406 19.375 -22.921875 C 20.039062 -22.984375 20.582031 -23.023438 21 -23.046875 C 21.425781 -23.066406 21.820312 -23.082031 22.1875 -23.09375 C 22.5625 -23.101562 22.972656 -23.109375 23.421875 -23.109375 C 24.640625 -23.109375 25.707031 -23.085938 26.625 -23.046875 C 27.539062 -23.003906 28.410156 -22.925781 29.234375 -22.8125 C 29.660156 -22.75 29.925781 -22.691406 30.03125 -22.640625 C 30.144531 -22.597656 30.203125 -22.507812 30.203125 -22.375 C 30.203125 -22.3125 30.160156 -22.191406 30.078125 -22.015625 C 30.003906 -21.835938 29.925781 -21.679688 29.84375 -21.546875 C 29.664062 -21.316406 29.429688 -21.203125 29.140625 -21.203125 C 29.046875 -21.203125 28.9375 -21.207031 28.8125 -21.21875 C 28.695312 -21.238281 28.5625 -21.257812 28.40625 -21.28125 C 28 -21.320312 27.347656 -21.363281 26.453125 -21.40625 C 25.566406 -21.457031 24.722656 -21.484375 23.921875 -21.484375 C 23.515625 -21.484375 23.140625 -21.472656 22.796875 -21.453125 C 22.453125 -21.441406 22.046875 -21.425781 21.578125 -21.40625 C 21.109375 -21.382812 20.472656 -21.351562 19.671875 -21.3125 Z M 19.671875 -21.3125 "/></g></g></g></svg>